<svg width="241" height="241" viewBox="0 0 241 241" fill="none" xmlns="http://www.w3.org/2000/svg">
<circle cx="120.5" cy="120.5" r="120" stroke="url(#paint0_linear)"/>
<path d="M163.794 82.9799H150.593V78.2328C150.593 76.4489 149.134 75 147.289 75C145.499 75 144.041 76.45 144.041 78.2328V82.9799H109.26V78.2328C109.26 76.4489 107.803 75 105.956 75C104.166 75 102.709 76.45 102.709 78.2328V82.9799H89.5063C87.0425 82.9799 84.9775 84.6972 84.4419 86.9898C82.4167 87.3697 80.8044 88.9195 80.3398 90.9073C78.3147 91.2862 76.7034 92.8371 76.24 94.8227C73.829 95.2756 72 97.3857 72 99.9154V159.817C72 162.675 74.3355 165 77.2057 165H151.496C153.957 165 156.022 163.283 156.558 160.99C158.582 160.61 160.196 159.06 160.662 157.074C162.685 156.694 164.296 155.144 164.762 153.157C167.171 152.705 169 150.595 169 148.066V88.164C169 85.3058 166.666 82.9799 163.794 82.9799ZM144.987 78.2328C144.987 76.9695 146.021 75.9413 147.345 75.9413C148.614 75.9413 149.646 76.9695 149.646 78.2328V88.999C149.646 90.2622 148.614 91.2894 147.345 91.2894H147.289C146.021 91.2894 144.987 90.2622 144.987 88.999V78.2328ZM103.656 78.2328C103.656 76.9695 104.689 75.9413 106.015 75.9413C107.282 75.9413 108.315 76.9695 108.315 78.2328V88.999C108.315 90.2622 107.282 91.2894 106.015 91.2894H105.958C104.69 91.2894 103.658 90.2622 103.658 88.999L103.656 78.2328ZM85.248 95.7457H96.2662V106.305H85.248V95.7457ZM85.248 107.246H96.2662V117.805H85.248V107.246ZM85.248 118.747H96.2662V129.305H85.248V118.747ZM85.248 130.248H96.2662V140.807H85.248V130.248ZM85.248 141.748H96.2662V152.307H89.5063C87.1579 152.307 85.248 150.405 85.248 148.067V141.748ZM151.495 164.058H77.2046C74.855 164.058 72.9452 162.156 72.9452 159.817V99.9154C72.9452 97.9556 74.2924 96.3199 76.1074 95.8337C76.1063 95.8895 76.1009 95.9432 76.1009 95.9979V155.901C76.1009 158.757 78.4365 161.084 81.3066 161.084H155.537C154.992 162.801 153.395 164.058 151.495 164.058ZM155.595 160.141H81.3055C78.9549 160.141 77.0451 158.239 77.0451 155.9V95.9979C77.0451 94.0392 78.3923 92.4024 80.2084 91.9173C80.2073 91.9731 80.2008 92.0267 80.2008 92.0815V151.983C80.2008 154.84 82.5364 157.165 85.4065 157.165H159.636C159.093 158.884 157.496 160.141 155.595 160.141ZM159.694 156.223H85.4054C83.0558 156.223 81.1449 154.321 81.1449 151.983V92.0815C81.1449 90.1216 82.4943 88.4849 84.3093 87.9987C84.3082 88.0545 84.3018 88.1081 84.3018 88.1629V148.066C84.3018 150.924 86.6373 153.249 89.5063 153.249H163.736C163.192 154.966 161.597 156.223 159.694 156.223ZM108.231 107.246V117.805H97.2135V107.246H108.231ZM97.2135 106.305V95.7457H108.232V106.305H97.2135ZM108.231 118.747V129.305H97.2135V118.747H108.231ZM108.231 130.248V140.807H97.2135V130.248H108.231ZM108.231 141.749V152.307H97.2135V141.749H108.231ZM120.195 107.246V117.805H109.178V107.246H120.195ZM109.178 106.305V95.7457H120.196V106.305H109.178ZM120.195 118.747V129.305H109.178V118.747H120.195ZM120.195 130.248V140.807H109.178V130.248H120.195ZM120.195 141.749V152.307H109.178V141.749H120.195ZM132.159 107.246V117.805H121.14V107.246H132.159ZM121.14 106.305V95.7457H132.159V106.305H121.14ZM132.159 118.747V129.305H121.14V118.747H132.159ZM132.159 130.248V140.807H121.14V130.248H132.159ZM132.159 141.749V152.307H121.14V141.749H132.159ZM144.124 107.246V117.805H133.106V107.246H144.124ZM133.106 106.305V95.7457H144.124V106.305H133.106ZM144.124 118.747V129.305H133.106V118.747H144.124ZM144.124 130.248V140.807H133.106V130.248H144.124ZM144.124 141.749V152.307H133.106V141.749H144.124ZM156.089 107.246V117.805H145.071V107.246H156.089ZM145.071 106.305V95.7457H156.089V106.305H145.071ZM156.089 118.747V129.305H145.071V118.747H156.089ZM156.089 130.248V140.807H145.071V130.248H156.089ZM156.089 141.749V152.307H145.071V141.749H156.089ZM168.053 148.066C168.053 150.404 166.144 152.306 163.794 152.306H157.036V141.747H168.054L168.053 148.066ZM168.053 140.807H157.035V130.248H168.053V140.807ZM168.053 129.305H157.035V118.747H168.053V129.305ZM168.053 117.805H157.035V107.246H168.053V117.805ZM168.053 106.304H157.035V95.7446H168.053V106.304ZM168.053 94.8033H85.248V88.164C85.248 85.8263 87.1579 83.9234 89.5063 83.9234H102.709V88.999C102.709 90.7828 104.166 92.2317 105.956 92.2317H106.014C107.804 92.2317 109.26 90.7817 109.26 88.999V83.9234H144.041V88.999C144.041 90.7828 145.499 92.2317 147.289 92.2317H147.345C149.135 92.2317 150.594 90.7817 150.594 88.999V83.9234H163.794C166.144 83.9234 168.053 85.8263 168.053 88.164V94.8033Z" fill="black"/>
<rect x="92" y="106" width="67" height="28" fill="white"/>
<path d="M120.907 131.733H119.407V114.233L115 116.198V114.674L120.653 112.201H120.907V131.733Z" fill="#DC4405"/>
<path d="M136 123.604C136 126.367 135.571 128.457 134.714 129.874C133.866 131.291 132.611 132 130.95 132C129.307 132 128.052 131.296 127.186 129.888C126.328 128.471 125.891 126.43 125.873 123.765V120.342C125.873 117.633 126.297 115.565 127.146 114.139C127.994 112.713 129.253 112 130.923 112C132.566 112 133.817 112.691 134.674 114.072C135.531 115.445 135.973 117.45 136 120.088V123.604ZM134.5 120.128C134.5 117.9 134.201 116.22 133.602 115.088C133.013 113.956 132.12 113.39 130.923 113.39C129.771 113.39 128.891 113.934 128.284 115.021C127.686 116.1 127.373 117.709 127.346 119.848V123.791C127.346 125.966 127.65 127.651 128.257 128.845C128.874 130.03 129.771 130.623 130.95 130.623C132.093 130.623 132.964 130.061 133.562 128.939C134.169 127.807 134.482 126.149 134.5 123.965V120.128Z" fill="#DC4405"/>
<defs>
<linearGradient id="paint0_linear" x1="1.49633e-07" y1="241" x2="285.46" y2="150.894" gradientUnits="userSpaceOnUse">
<stop offset="0.0196881" stop-color="#DC4405"/>
<stop offset="1" stop-color="#DC4405" stop-opacity="0.64"/>
</linearGradient>
</defs>
</svg>
