<svg width="241" height="241" viewBox="0 0 241 241" fill="none" xmlns="http://www.w3.org/2000/svg">
<path d="M67.723 172.427C67.3236 172.427 67 172.102 67 171.702C67 171.301 67.3236 170.976 67.723 170.976H121.161C121.56 170.976 121.884 171.301 121.884 171.702C121.884 172.102 121.56 172.427 121.161 172.427H67.723ZM93.651 106.973C93.6492 107.372 93.3257 107.694 92.928 107.692C92.5303 107.691 92.2086 107.366 92.2104 106.967L92.2411 101.271C92.2429 100.872 92.5665 100.549 92.9642 100.551C93.3618 100.553 93.6836 100.877 93.6818 101.276L93.651 106.973ZM93.5751 111.532C93.8571 113.761 94.4934 114.504 95.0827 115.191C95.502 115.68 95.9015 116.146 96.2016 116.96C96.3425 117.343 96.4383 117.738 96.4799 118.133C96.554 118.839 96.4474 119.529 96.1039 120.135C95.7569 120.746 95.1839 121.248 94.3307 121.565C93.933 121.712 93.4685 121.819 92.9316 121.877C92.8756 121.883 92.8196 121.883 92.7671 121.875C92.2375 121.817 91.7802 121.712 91.388 121.565C90.5348 121.248 89.9618 120.746 89.6147 120.135C89.2695 119.529 89.1628 118.839 89.2387 118.133C89.2803 117.738 89.3761 117.343 89.5171 116.96C89.8172 116.148 90.2166 115.68 90.636 115.191C91.2253 114.502 91.8652 113.759 92.1453 111.521C92.1941 111.126 92.552 110.843 92.9479 110.892C93.2859 110.934 93.5408 111.206 93.5769 111.532H93.5751ZM93.9873 116.132C93.6022 115.684 93.201 115.215 92.8593 114.473C92.5177 115.215 92.1164 115.682 91.7314 116.132C91.3988 116.52 91.0825 116.89 90.8728 117.459C90.7698 117.738 90.7011 118.016 90.6721 118.28C90.6288 118.699 90.683 119.094 90.8674 119.421C91.0499 119.742 91.3771 120.017 91.8832 120.204C92.1598 120.307 92.4833 120.383 92.8575 120.427C93.2317 120.382 93.5552 120.305 93.8318 120.204C94.3379 120.015 94.6651 119.742 94.8477 119.421C95.0339 119.094 95.0881 118.699 95.0429 118.28C95.0158 118.016 94.9453 117.738 94.8422 117.459C94.6326 116.89 94.3162 116.52 93.9836 116.132H93.9873ZM96.5974 125.106C96.5974 124.705 96.921 124.381 97.3204 124.381C97.7199 124.381 98.0435 124.705 98.0435 125.106V138.912C98.0435 138.934 98.0417 138.957 98.0399 138.979C98.0435 139.454 98.17 139.915 98.5135 140.419C98.9184 141.011 99.6089 141.666 100.71 142.455C100.721 142.462 100.73 142.469 100.74 142.478C101.223 142.862 101.601 143.189 101.919 143.49C102.241 143.793 102.501 144.072 102.75 144.362C103.757 145.533 104.56 146.88 105.102 148.35C105.628 149.77 105.914 151.304 105.914 152.906C105.914 156.521 104.453 159.796 102.089 162.165C100.321 163.938 98.0471 165.206 95.5056 165.731H113.413C113.813 165.731 114.136 166.056 114.136 166.457C114.136 166.857 113.813 167.182 113.413 167.182H75.4703C75.0709 167.182 74.7473 166.857 74.7473 166.457C74.7473 166.056 75.0709 165.731 75.4703 165.731H90.2094C87.6661 165.206 85.394 163.938 83.6262 162.165C81.2637 159.796 79.8013 156.521 79.8013 152.906C79.8013 151.306 80.0887 149.77 80.6129 148.35C81.157 146.882 81.9596 145.533 82.9646 144.362C83.214 144.072 83.4743 143.794 83.7961 143.49C84.116 143.189 84.492 142.862 84.9746 142.478C84.9927 142.464 85.009 142.451 85.0271 142.44C86.1152 141.659 86.7985 141.01 87.1998 140.42C87.5577 139.896 87.6806 139.418 87.6734 138.923V138.914H87.6697V125.108C87.6697 124.707 87.9933 124.383 88.3928 124.383C88.7923 124.383 89.1158 124.707 89.1158 125.108V138.914H89.1122C89.123 139.695 88.9351 140.439 88.391 141.236C87.8957 141.963 87.1004 142.728 85.8676 143.615C85.4157 143.976 85.0686 144.273 84.783 144.543C84.4974 144.813 84.2697 145.056 84.0546 145.306C83.1652 146.342 82.4531 147.54 81.9686 148.853C81.5023 150.114 81.2474 151.48 81.2474 152.905C81.2474 153.198 81.2582 153.488 81.2799 153.777C81.3269 153.766 81.3775 153.758 81.4282 153.757C82.9592 153.702 83.4798 153.227 83.9895 152.761C84.6565 152.152 85.309 151.554 87.0967 151.471C87.1184 151.469 87.1383 151.471 87.1582 151.471H87.1727C88.9477 151.556 89.6002 152.152 90.2654 152.76C90.7734 153.224 91.2903 153.697 92.8051 153.755C94.318 153.697 94.8368 153.224 95.3448 152.76C96.0118 152.15 96.6643 151.552 98.452 151.469C98.4737 151.467 98.4936 151.469 98.5135 151.469H98.5279C100.303 151.554 100.956 152.15 101.621 152.758C102.13 153.224 102.651 153.699 104.182 153.753C104.271 153.757 104.356 153.775 104.433 153.806C104.457 153.506 104.468 153.206 104.468 152.901C104.468 151.476 104.213 150.111 103.746 148.849C103.26 147.536 102.55 146.338 101.66 145.303C101.445 145.051 101.216 144.808 100.932 144.539C100.646 144.269 100.299 143.972 99.8475 143.611C98.6147 142.725 97.8175 141.958 97.3241 141.233C96.7944 140.455 96.601 139.728 96.6028 138.968C96.601 138.948 96.601 138.93 96.601 138.91V125.104L96.5974 125.106ZM101.068 161.137C102.656 159.544 103.786 157.491 104.244 155.196C104.209 155.2 104.175 155.202 104.139 155.2C102.069 155.127 101.353 154.471 100.65 153.831C100.18 153.401 99.7191 152.981 98.4827 152.917C97.2463 152.981 96.7854 153.403 96.3154 153.831C95.6159 154.471 94.9001 155.125 92.8412 155.2H92.8286C92.8141 155.2 92.7979 155.2 92.7834 155.2C90.7137 155.127 89.9979 154.471 89.2948 153.831C88.8248 153.401 88.3639 152.981 87.1275 152.917C85.8911 152.981 85.4301 153.403 84.9602 153.831C84.2588 154.473 83.5412 155.127 81.4733 155.2C81.9307 157.495 83.0604 159.546 84.6475 161.137C86.7479 163.244 89.6509 164.548 92.8575 164.548C96.0642 164.548 98.9654 163.244 101.068 161.137ZM99.551 157.263C99.7697 156.928 100.216 156.835 100.551 157.053C100.885 157.272 100.977 157.72 100.76 158.055C100.115 159.047 99.3233 159.897 98.4231 160.572C97.5265 161.242 96.5233 161.739 95.4424 162.029C95.0574 162.133 94.6615 161.902 94.5585 161.516C94.4554 161.13 94.685 160.733 95.07 160.63C95.9702 160.389 96.8089 159.973 97.5609 159.41C98.3255 158.837 98.9997 158.11 99.5528 157.261L99.551 157.263Z" fill="#DC4405"/>
<path d="M167.192 79.8815V70.4468H142.148V112.695H142.146C142.164 114.025 142.473 114.818 142.98 115.258C143.486 115.699 144.243 115.84 145.129 115.837L151.773 115.809C151.902 115.082 152.395 114.448 153.127 113.987C153.887 113.509 154.919 113.213 156.043 113.213C157.167 113.213 158.199 113.509 158.959 113.987C159.465 114.306 159.859 114.709 160.094 115.169C160.654 114.288 161.195 113.229 161.724 112.191C162.216 111.226 162.699 110.278 163.205 109.466C162.699 108.653 162.214 107.705 161.724 106.741C161.236 105.784 160.739 104.81 160.226 103.974C159.899 104.328 159.555 104.625 159.19 104.844C159.116 104.899 159.038 104.951 158.957 105.002C158.198 105.481 157.166 105.776 156.041 105.776C154.917 105.776 153.885 105.481 153.126 105.002C152.269 104.462 151.737 103.684 151.737 102.796C151.737 101.907 152.267 101.13 153.126 100.589C153.885 100.111 154.917 99.8152 156.041 99.8152C157.166 99.8152 158.198 100.111 158.957 100.589C158.995 100.613 159.033 100.638 159.069 100.664L159.091 100.624C159.492 100.849 159.868 101.166 160.224 101.552C160.737 100.716 161.234 99.7409 161.722 98.7854C162.203 97.8427 162.677 96.9144 163.17 96.1149C162.677 95.3136 162.203 94.3872 161.722 93.4444C161.231 92.4799 160.73 91.4973 160.211 90.656C159.879 91.015 159.528 91.3123 159.157 91.5317C159.092 91.5788 159.026 91.6242 158.957 91.6677C158.198 92.1463 157.166 92.4418 156.041 92.4418C154.917 92.4418 153.885 92.1463 153.126 91.6677C152.269 91.1274 151.737 90.3496 151.737 89.4613C151.737 88.5729 152.267 87.7952 153.126 87.2549C153.885 86.7763 154.917 86.4807 156.041 86.4807C157.166 86.4807 158.198 86.7763 158.957 87.2549C159 87.2821 159.044 87.3111 159.085 87.3383L159.092 87.3256C159.488 87.5468 159.861 87.8604 160.213 88.2393C160.732 87.3999 161.233 86.4155 161.724 85.451C162.858 83.2283 163.946 81.0926 165.376 80.5015L165.383 80.5197C165.889 80.2169 166.509 79.9921 167.192 79.8779V79.8815ZM168.638 70.4468V79.8108C169.6 79.8743 170.471 80.1535 171.135 80.5704C171.991 81.1107 172.523 81.8885 172.523 82.7768C172.523 83.6652 171.993 84.443 171.135 84.9832C170.375 85.4619 169.343 85.7574 168.219 85.7574C167.095 85.7574 166.062 85.4619 165.303 84.9832C164.819 84.6786 164.439 84.2961 164.201 83.8628C163.808 84.539 163.411 85.3186 163.006 86.1127C162.415 87.2712 161.811 88.4551 161.148 89.4504C161.811 90.4457 162.415 91.6296 163.006 92.7881C163.371 93.506 163.732 94.2113 164.087 94.8404C164.49 94.3781 164.915 94.0282 165.376 93.8378L165.388 93.8686C166.138 93.4208 167.136 93.1471 168.219 93.1471C169.343 93.1471 170.375 93.4426 171.135 93.9212C171.991 94.4615 172.523 95.2393 172.523 96.1276C172.523 97.016 171.993 97.7937 171.135 98.334C170.375 98.8126 169.343 99.1082 168.219 99.1082C167.133 99.1082 166.133 98.8326 165.381 98.383L165.376 98.3975C164.915 98.2071 164.49 97.8554 164.087 97.3949C163.731 98.024 163.371 98.7311 163.006 99.4472C162.418 100.6 161.818 101.777 161.158 102.769C161.818 103.76 162.418 104.937 163.006 106.09C163.384 106.831 163.756 107.564 164.125 108.207C164.497 107.789 164.889 107.464 165.31 107.276C166.07 106.801 167.098 106.505 168.221 106.505C169.345 106.505 170.377 106.801 171.136 107.279C171.993 107.82 172.525 108.597 172.525 109.486C172.525 110.374 171.995 111.152 171.136 111.692C170.377 112.171 169.345 112.466 168.221 112.466C167.096 112.466 166.064 112.171 165.305 111.692C165.253 111.659 165.202 111.625 165.151 111.591C164.79 111.397 164.45 111.103 164.125 110.737C163.758 111.382 163.384 112.113 163.006 112.854C161.872 115.075 160.696 117.385 159.134 118.289C159.076 118.329 159.018 118.369 158.957 118.407C158.198 118.886 157.166 119.181 156.041 119.181C154.917 119.181 153.885 118.886 153.126 118.407C152.632 118.095 152.247 117.706 152.008 117.262L145.131 117.289C143.921 117.292 142.848 117.068 142.034 116.359C141.221 115.65 140.727 114.509 140.704 112.709V112.7H140.7V80.1154H96.774V80.1136C95.4473 80.1317 94.6574 80.4417 94.2181 80.9493C93.7771 81.457 93.6379 82.2184 93.6415 83.1086H93.6451V88.0091C94.8833 88.1487 95.9932 88.7125 96.8283 89.5501C97.7989 90.5237 98.3991 91.8671 98.3991 93.3538C98.3991 94.8386 97.7989 96.1838 96.8283 97.1574C95.8576 98.131 94.5182 98.7329 93.036 98.7329C91.5555 98.7329 90.2143 98.131 89.2436 97.1574C88.273 96.1838 87.6729 94.8404 87.6729 93.3538C87.6729 91.8689 88.273 90.5237 89.2436 89.5501C90.0281 88.7633 91.053 88.2194 92.1972 88.0399V83.1086H92.2009C92.1972 81.8957 92.4214 80.8188 93.1281 80.003C93.8349 79.1871 94.9719 78.6922 96.7668 78.6686H96.7759V78.665H126.064C126.064 78.6596 126.064 78.6541 126.064 78.6487V73.4436H126.068C126.064 72.2307 126.288 71.1538 126.995 70.338C127.702 69.5221 128.839 69.0272 130.634 69.0036H130.643V69H173.277C173.676 69 174 69.3245 174 69.7252C174 70.1259 173.676 70.4504 173.277 70.4504H168.642L168.638 70.4468ZM116.808 143.414H118.254V144.864H116.808V143.414ZM116.808 81.7017H118.254V83.1521H116.808V81.7017ZM116.808 84.6025H118.254V86.0529H116.808V84.6025ZM116.808 87.5033H118.254V88.9537H116.808V87.5033ZM116.808 90.404H118.254V91.8544H116.808V90.404ZM116.808 126.009H118.254V127.46H116.808V126.009ZM116.808 128.91H118.254V130.36H116.808V128.91ZM116.808 131.811H118.254V133.261H116.808V131.811ZM116.808 134.711H118.254V136.162H116.808V134.711ZM116.808 137.612H118.254V139.063H116.808V137.612ZM116.808 140.513H118.254V141.963H116.808V140.513ZM162.326 120.267L160.88 120.275L160.873 118.824L162.319 118.817L162.326 120.267ZM162.379 131.871L160.933 131.878L160.925 130.427L162.371 130.42L162.379 131.871ZM162.351 126.069L160.905 126.076L160.898 124.626L162.344 124.619L162.351 126.069ZM153.892 115.215C153.453 115.49 153.182 115.84 153.182 116.197C153.182 116.554 153.453 116.904 153.892 117.18C154.429 117.517 155.186 117.727 156.039 117.727C156.893 117.727 157.65 117.519 158.187 117.18C158.626 116.904 158.897 116.554 158.897 116.197C158.897 115.84 158.626 115.49 158.187 115.215C157.65 114.877 156.893 114.667 156.039 114.667C155.186 114.667 154.429 114.876 153.892 115.215ZM166.07 108.499C165.63 108.775 165.359 109.125 165.359 109.482C165.359 109.79 165.562 110.093 165.9 110.349L165.92 110.358L165.918 110.363C165.965 110.398 166.015 110.432 166.068 110.466C166.605 110.804 167.362 111.014 168.215 111.014C169.068 111.014 169.826 110.805 170.363 110.466C170.802 110.191 171.073 109.841 171.073 109.484C171.073 109.127 170.802 108.777 170.363 108.501C169.826 108.164 169.068 107.954 168.215 107.954C167.362 107.954 166.605 108.162 166.068 108.501L166.07 108.499ZM153.892 101.817C153.453 102.092 153.182 102.442 153.182 102.799C153.182 103.157 153.453 103.506 153.892 103.782C154.429 104.119 155.186 104.33 156.039 104.33C156.893 104.33 157.65 104.121 158.187 103.782C158.626 103.506 158.897 103.157 158.897 102.799C158.897 102.442 158.626 102.092 158.187 101.817C157.65 101.48 156.893 101.269 156.039 101.269C155.186 101.269 154.429 101.478 153.892 101.817ZM166.07 95.145C165.63 95.4206 165.359 95.7705 165.359 96.1276C165.359 96.4848 165.63 96.8347 166.07 97.1103C166.607 97.4475 167.364 97.6578 168.217 97.6578C169.07 97.6578 169.828 97.4493 170.364 97.1103C170.804 96.8347 171.075 96.4848 171.075 96.1276C171.075 95.7705 170.804 95.4206 170.364 95.145C169.828 94.8078 169.07 94.5975 168.217 94.5975C167.364 94.5975 166.607 94.806 166.07 95.145ZM153.892 88.4823C153.453 88.7579 153.182 89.1078 153.182 89.4649C153.182 89.8221 153.453 90.172 153.892 90.4475C154.429 90.7848 155.186 90.9951 156.039 90.9951C156.893 90.9951 157.65 90.7866 158.187 90.4475C158.626 90.172 158.897 89.8221 158.897 89.4649C158.897 89.1078 158.626 88.7579 158.187 88.4823C157.65 88.1451 156.893 87.9348 156.039 87.9348C155.186 87.9348 154.429 88.1433 153.892 88.4823ZM166.07 81.7978C165.63 82.0734 165.359 82.4233 165.359 82.7805C165.359 83.1376 165.63 83.4875 166.07 83.7631C166.607 84.1003 167.364 84.3106 168.217 84.3106C169.07 84.3106 169.828 84.1021 170.364 83.7631C170.804 83.4875 171.075 83.1376 171.075 82.7805C171.075 82.4233 170.804 82.0734 170.364 81.7978C169.828 81.4606 169.07 81.2503 168.217 81.2503C167.364 81.2503 166.607 81.4588 166.07 81.7978ZM140.7 78.6632V70.4504H130.639V70.4486C129.312 70.4667 128.522 70.7767 128.083 71.2844C127.642 71.792 127.503 72.5534 127.507 73.4436H127.51V78.6487C127.51 78.6541 127.51 78.6596 127.51 78.665H140.702L140.7 78.6632ZM125.768 109.08L124.322 109.11L124.291 107.66L125.737 107.629L125.768 109.08ZM110.615 106.822L109.169 106.853L109.138 105.403L110.584 105.372L110.615 106.822ZM110.739 112.622L109.293 112.653L109.263 111.203L110.709 111.172L110.739 112.622ZM109.335 115.991C109.335 115.59 109.659 115.265 110.058 115.265C110.457 115.265 110.781 115.59 110.781 115.991V120.423C110.781 121.159 110.998 121.861 111.808 122.361C112.784 122.963 114.532 123.333 117.549 123.275H117.572C120.589 123.331 122.337 122.963 123.313 122.361C124.123 121.861 124.34 121.159 124.34 120.423V114.547C124.34 114.147 124.663 113.822 125.063 113.822C125.462 113.822 125.786 114.147 125.786 114.547V120.423C125.786 121.616 125.424 122.76 124.069 123.596C122.881 124.329 120.882 124.782 117.559 124.72C114.239 124.782 112.24 124.329 111.05 123.596C109.696 122.76 109.333 121.616 109.333 120.423V115.991H109.335ZM110.781 102.129C110.781 102.529 110.457 102.854 110.058 102.854C109.659 102.854 109.335 102.529 109.335 102.129V97.8101C109.335 96.6171 109.696 95.4731 111.052 94.6373C112.24 93.9049 114.239 93.4517 117.561 93.5133C120.882 93.4517 122.881 93.9049 124.07 94.6373C125.424 95.4731 125.788 96.6171 125.788 97.8101V103.686C125.788 104.087 125.464 104.411 125.065 104.411C124.665 104.411 124.342 104.087 124.342 103.686V97.8101C124.342 97.074 124.125 96.3724 123.315 95.872C122.339 95.2701 120.591 94.9002 117.574 94.9582H117.55C114.534 94.902 112.786 95.2701 111.81 95.872C111 96.3724 110.783 97.074 110.783 97.8101V102.129H110.781ZM93.6505 106.973C93.6487 107.372 93.3252 107.694 92.9275 107.693C92.5298 107.691 92.2081 107.366 92.2099 106.967L92.2406 101.271C92.2424 100.872 92.566 100.549 92.9637 100.551C93.3613 100.553 93.6831 100.878 93.6813 101.276L93.6505 106.973ZM95.8052 90.5745C95.0966 89.8638 94.1169 89.4232 93.036 89.4232C91.955 89.4232 90.9753 89.862 90.2667 90.5745C89.5582 91.2851 89.1189 92.2678 89.1189 93.3519C89.1189 94.4361 89.5564 95.4187 90.2667 96.1294C90.9753 96.8401 91.955 97.2807 93.036 97.2807C94.1169 97.2807 95.0966 96.8419 95.8052 96.1294C96.5138 95.4187 96.953 94.4361 96.953 93.3519C96.953 92.2678 96.5156 91.2851 95.8052 90.5745Z" fill="black"/>
<path d="M139.315 140.299L142.556 142.174C142.568 142.181 142.579 142.188 142.591 142.196L145.801 144.055C146.016 144.18 146.137 144.405 146.137 144.636H146.14V152.157C146.14 152.429 145.979 152.663 145.748 152.769L142.556 154.618V154.62L139.309 156.501C139.091 156.627 138.832 156.617 138.631 156.495L135.391 154.62C135.379 154.613 135.367 154.606 135.355 154.598L132.145 152.739C131.93 152.615 131.81 152.389 131.81 152.159H131.806V144.637C131.806 144.365 131.967 144.131 132.199 144.025L135.391 142.176V142.174L138.638 140.294C138.856 140.168 139.114 140.178 139.315 140.299ZM141.885 143.337L138.973 141.651L136.062 143.337V143.335L133.15 145.021V151.773L136.025 153.439C136.036 153.446 136.05 153.452 136.062 153.459L138.973 155.145L141.885 153.459V153.461L144.797 151.775V145.023L141.922 143.357C141.91 143.35 141.897 143.344 141.885 143.337ZM117.01 165.921V167.267H115.668V165.921H117.01ZM127.744 165.921V167.267H126.402V165.921H127.744ZM122.377 165.921V167.267H121.035V165.921H122.377ZM130.735 167.227C130.364 167.227 130.064 166.925 130.064 166.554C130.064 166.182 130.364 165.881 130.735 165.881H135.55V165.884C136.373 165.887 137.078 165.756 137.548 165.347C138.017 164.939 138.304 164.202 138.321 162.969H138.319V158.852C138.319 158.481 138.619 158.179 138.99 158.179C139.361 158.179 139.661 158.481 139.661 158.852V162.969H139.658V162.977C139.636 164.648 139.176 165.706 138.423 166.364C137.668 167.021 136.672 167.23 135.55 167.227V167.23H130.735V167.227ZM139.659 137.129C139.659 137.501 139.359 137.802 138.988 137.802C138.618 137.802 138.317 137.501 138.317 137.129V126.18C138.317 125.808 138.618 125.507 138.988 125.507C139.359 125.507 139.659 125.808 139.659 126.18V137.129ZM155.757 140.077C155.757 139.705 156.058 139.404 156.428 139.404C156.799 139.404 157.099 139.705 157.099 140.077V144.906H157.096C157.099 146.032 156.891 147.031 156.235 147.788C155.58 148.545 154.525 149.004 152.859 149.026H152.851V149.03H148.072C147.702 149.03 147.401 148.729 147.401 148.357C147.401 147.985 147.702 147.684 148.072 147.684H152.851V147.686C154.082 147.669 154.815 147.381 155.222 146.91C155.632 146.439 155.761 145.732 155.757 144.906H155.754V140.077H155.757ZM130.057 147.682C130.428 147.682 130.728 147.983 130.728 148.355C130.728 148.727 130.428 149.028 130.057 149.028H115.503C115.133 149.028 114.833 148.727 114.833 148.355C114.833 147.983 115.133 147.682 115.503 147.682H130.057ZM93.2196 111.361C93.2179 111.731 92.9177 112.03 92.5487 112.028C92.1797 112.027 91.8811 111.726 91.8828 111.356L91.9113 106.07C91.913 105.7 92.2132 105.4 92.5822 105.402C92.9512 105.404 93.2498 105.705 93.2481 106.075L93.2196 111.361Z" fill="#DC4405"/>
<circle cx="120.5" cy="120.5" r="120" stroke="url(#paint0_linear)"/>
<defs>
<linearGradient id="paint0_linear" x1="1.49633e-07" y1="241" x2="285.46" y2="150.894" gradientUnits="userSpaceOnUse">
<stop offset="0.0196881" stop-color="#DC4405"/>
<stop offset="1" stop-color="#DC4405" stop-opacity="0.64"/>
</linearGradient>
</defs>
</svg>
