<svg width="241" height="241" viewBox="0 0 241 241" fill="none" xmlns="http://www.w3.org/2000/svg">
<circle cx="120.5" cy="120.5" r="120" stroke="url(#paint0_linear)"/>
<path d="M181.925 83.2457C182.297 82.2536 181.18 81.8816 180.808 82.7497L170.515 106.436C164.315 83.7418 143.48 67 118.802 67C93.5031 67 72.1728 84.6099 66.5922 108.172C66.3442 109.165 67.5843 109.289 67.8323 108.42C73.4129 85.354 94.1231 68.2401 118.802 68.2401C143.108 68.2401 163.571 84.8579 169.523 107.428L145.341 97.0112C144.349 96.6392 143.852 97.6313 144.845 98.1273L170.639 109.289L181.925 83.2457Z" fill="black"/>
<path d="M169.896 132.975C164.315 156.042 143.605 173.155 118.802 173.155C94.6197 173.155 74.1574 156.662 68.2048 134.339L93.1315 142.524C93.8756 142.772 94.3716 141.656 93.5035 141.408L66.8407 132.603L58.0357 159.142C57.7877 160.134 58.9038 160.506 59.1518 159.514L67.0887 135.331C73.5374 157.902 94.2476 174.396 118.802 174.396C144.101 174.396 165.431 156.786 171.012 133.099C171.26 132.355 170.02 131.983 169.896 132.975Z" fill="black"/>
<path d="M119.34 113.525C115.221 113.525 111.864 116.882 111.864 121.001C111.864 125.12 115.221 128.477 119.34 128.477C123.459 128.477 126.815 125.12 126.815 121.001C126.815 116.882 123.459 113.525 119.34 113.525ZM119.34 127.917C115.526 127.917 112.424 124.815 112.424 121.001C112.424 117.187 115.526 114.085 119.34 114.085C123.154 114.085 126.307 117.187 126.307 121.001C126.307 124.815 123.205 127.917 119.34 127.917Z" fill="#DC4405"/>
<path fill-rule="evenodd" clip-rule="evenodd" d="M111.468 121.001C111.468 116.663 115.002 113.129 119.34 113.129C123.679 113.129 127.213 116.663 127.213 121.001C127.213 125.339 123.679 128.873 119.34 128.873C115.002 128.873 111.468 125.339 111.468 121.001ZM112.821 121.001C112.821 124.596 115.745 127.52 119.34 127.52C122.988 127.52 125.91 124.594 125.91 121.001C125.91 117.41 122.939 114.482 119.34 114.482C115.745 114.482 112.821 117.406 112.821 121.001ZM111.865 121.001C111.865 116.882 115.221 113.526 119.34 113.526C123.459 113.526 126.816 116.882 126.816 121.001C126.816 125.12 123.459 128.477 119.34 128.477C115.221 128.477 111.865 125.12 111.865 121.001ZM112.424 121.001C112.424 124.815 115.526 127.917 119.34 127.917C123.205 127.917 126.307 124.815 126.307 121.001C126.307 117.187 123.154 114.085 119.34 114.085C115.526 114.085 112.424 117.187 112.424 121.001Z" fill="#DC4405"/>
<path d="M139.326 121.052C139.326 118.051 141.462 115.56 144.259 115L144.767 114.898L144.665 114.441C144.055 112.051 143.089 109.762 141.818 107.677L141.563 107.27L141.157 107.626C140.089 108.542 138.715 109.101 137.19 109.101C133.783 109.101 130.986 106.304 130.986 102.897C130.986 101.422 131.494 100.049 132.359 98.9812L132.715 98.5743L132.308 98.32C130.426 97.2521 128.392 96.3876 126.256 95.7773L125.799 95.6756L125.748 96.1842C125.239 99.0829 122.696 101.27 119.645 101.27C116.543 101.27 114 98.9812 113.543 96.0316L113.492 95.5231L113.034 95.6248C110.644 96.235 108.356 97.1504 106.271 98.3709L105.864 98.6252L106.169 99.032C106.932 100.049 107.339 101.32 107.339 102.694C107.339 106.101 104.542 108.898 101.134 108.898C99.7612 108.898 98.4899 108.44 97.4728 107.677L97.066 107.372L96.8117 107.779C95.5912 109.813 94.6758 112.051 94.0656 114.39L93.9639 114.898L94.4724 115C97.2694 115.56 99.4053 118.102 99.4053 121.052C99.4053 124.052 97.2694 126.544 94.4724 127.103L93.9639 127.205L94.0656 127.663C94.6758 129.9 95.5403 132.036 96.6591 134.02L96.9134 134.426L97.3202 134.121C98.3373 133.409 99.5578 133.003 100.88 133.003C104.287 133.003 107.084 135.8 107.084 139.207C107.084 140.58 106.627 141.8 105.915 142.817L105.609 143.224L106.016 143.479C108.101 144.699 110.339 145.665 112.78 146.326L113.238 146.428L113.288 145.92C113.797 142.97 116.34 140.732 119.391 140.732C122.442 140.732 124.985 142.97 125.493 145.92L125.544 146.428L126.002 146.326C128.341 145.716 133.02 143.326 133.02 143.326L132.715 142.919C131.952 141.902 131.494 140.58 131.494 139.207C131.494 135.8 134.291 133.003 137.698 133.003C139.071 133.003 140.343 133.46 141.36 134.223L141.767 134.528L142.021 134.121C143.191 132.138 144.106 129.951 144.716 127.663L144.818 127.205L144.309 127.103C141.411 126.544 139.326 124.001 139.326 121.052ZM141.563 133.816C140.445 133.003 139.122 132.545 137.648 132.545C133.986 132.545 130.986 135.545 130.986 139.207C130.986 140.682 131.494 142.055 132.308 143.173C130.325 144.343 128.189 145.258 125.951 145.818C125.392 142.665 122.696 140.275 119.391 140.275C116.085 140.275 113.39 142.665 112.831 145.767C110.542 145.157 108.356 144.241 106.321 143.021C107.084 141.953 107.593 140.58 107.593 139.156C107.593 135.494 104.592 132.494 100.931 132.494C99.507 132.494 98.2356 132.952 97.1677 133.664C96.0997 131.731 95.2352 129.697 94.625 127.51C97.6254 126.9 99.9138 124.205 99.9138 121.001C99.9138 117.797 97.6254 115.102 94.625 114.492C95.2352 112.254 96.0997 110.118 97.2694 108.135C98.3882 108.949 99.7104 109.406 101.185 109.406C104.847 109.406 107.847 106.406 107.847 102.744C107.847 101.32 107.389 99.9474 106.576 98.8794C108.61 97.7098 110.797 96.7944 113.085 96.235C113.594 99.388 116.34 101.829 119.645 101.829C122.9 101.829 125.595 99.4897 126.205 96.3876C128.24 96.947 130.172 97.7607 132.003 98.7777C131.087 99.8965 130.579 101.371 130.579 102.897C130.579 106.558 133.579 109.559 137.241 109.559C138.817 109.559 140.292 108.999 141.462 108.033C142.631 110.016 143.547 112.203 144.157 114.492C141.156 115.102 138.868 117.797 138.868 121.001C138.868 124.205 141.156 126.9 144.157 127.51C143.547 129.748 142.682 131.884 141.563 133.816Z" fill="#DC4405"/>
<path fill-rule="evenodd" clip-rule="evenodd" d="M145.242 115.208L144.336 115.389C141.722 115.912 139.722 118.244 139.722 121.052C139.722 123.812 141.674 126.191 144.384 126.714L144.387 126.714L145.293 126.895L145.1 127.765C144.48 130.088 143.551 132.308 142.363 134.323L142.357 134.332L141.874 135.105L141.122 134.54C140.17 133.827 138.982 133.399 137.698 133.399C134.51 133.399 131.891 136.019 131.891 139.207C131.891 140.494 132.321 141.733 133.032 142.681L133.62 143.465L133.2 143.679L133.02 143.326L132.714 142.919C131.952 141.902 131.494 140.58 131.494 139.207C131.494 135.799 134.291 133.002 137.698 133.002C139.071 133.002 140.343 133.46 141.36 134.223L141.766 134.528L142.021 134.121C143.19 132.138 144.106 129.951 144.716 127.663L144.818 127.205L144.309 127.103C141.411 126.544 139.325 124.001 139.325 121.052C139.325 118.051 141.461 115.559 144.258 115L144.767 114.898L144.665 114.441C144.055 112.051 143.089 109.762 141.817 107.677L141.563 107.27L141.156 107.626C140.088 108.542 138.715 109.101 137.19 109.101C133.782 109.101 130.985 106.304 130.985 102.897C130.985 101.422 131.494 100.049 132.358 98.981L132.714 98.5742L132.308 98.3199C130.426 97.252 128.392 96.3875 126.256 95.7772L125.798 95.6755L125.747 96.1841C125.239 99.0827 122.696 101.269 119.645 101.269C116.543 101.269 114 98.981 113.542 96.0315L113.492 95.523L113.034 95.6247C110.644 96.2349 108.355 97.1503 106.27 98.3708L105.863 98.6251L106.169 99.0319C106.931 100.049 107.338 101.32 107.338 102.693C107.338 106.101 104.541 108.898 101.134 108.898C99.761 108.898 98.4896 108.44 97.4725 107.677L97.0657 107.372L96.8114 107.779C95.5909 109.813 94.6756 112.051 94.0653 114.39L93.9636 114.898L94.4722 115C97.2691 115.559 99.405 118.102 99.405 121.052C99.405 124.052 97.2691 126.544 94.4722 127.103L93.9636 127.205L94.0653 127.663C94.6756 129.9 95.5401 132.036 96.6589 134.02L96.9132 134.426L97.32 134.121C98.3371 133.409 99.5576 133.002 100.88 133.002C104.287 133.002 107.084 135.799 107.084 139.207C107.084 140.58 106.626 141.8 105.914 142.817L105.609 143.224L106.016 143.478C108.101 144.699 110.339 145.665 112.78 146.326L113.237 146.428L113.288 145.919C113.797 142.97 116.339 140.732 119.391 140.732C122.442 140.732 124.985 142.97 125.493 145.919L125.544 146.428L126.002 146.326C126.643 146.159 127.459 145.858 128.307 145.509C129.484 145.025 130.721 144.449 131.632 144.01C132.06 143.805 132.415 143.629 132.659 143.507C132.889 143.393 133.02 143.326 133.02 143.326L133.2 143.679L133.186 143.686L133.146 143.707L132.992 143.784C132.859 143.851 132.666 143.948 132.427 144.065C131.95 144.3 131.289 144.619 130.554 144.958C129.094 145.63 127.31 146.395 126.102 146.71L126.088 146.714L125.194 146.912L125.1 145.973C124.617 143.214 122.237 141.129 119.391 141.129C116.544 141.129 114.164 143.214 113.682 145.973L113.588 146.912L112.685 146.712L112.676 146.709C110.199 146.038 107.929 145.058 105.816 143.821L105.806 143.815L105.033 143.332L105.593 142.584C106.262 141.626 106.687 140.485 106.687 139.207C106.687 136.019 104.068 133.399 100.88 133.399C99.6432 133.399 98.5038 133.779 97.5528 134.443L96.8056 135.003L96.3176 134.222L96.3132 134.215C95.1775 132.201 94.3009 130.035 93.6825 127.767L93.68 127.758L93.4883 126.895L94.3943 126.714C97.0088 126.191 99.0082 123.86 99.0082 121.052C99.0082 118.292 97.0069 115.912 94.3943 115.389L93.4966 115.21L93.6784 114.301L93.6813 114.29C94.3004 111.917 95.2297 109.644 96.4712 107.575L96.4749 107.568L96.9582 106.795L97.7107 107.36C98.6618 108.073 99.8503 108.501 101.134 108.501C104.322 108.501 106.941 105.881 106.941 102.693C106.941 101.399 106.558 100.213 105.851 99.27L105.287 98.5175L106.07 98.0282C108.189 96.7875 110.513 95.8588 112.936 95.2402L112.948 95.2371L113.842 95.0386L113.936 95.9811C114.369 98.7377 116.748 100.873 119.645 100.873C122.498 100.873 124.873 98.8321 125.354 96.1297L125.448 95.1911L126.354 95.3924L126.365 95.3957C128.532 96.0148 130.595 96.8917 132.504 97.9748L132.518 97.9831L133.32 98.4847L132.662 99.2366C131.857 100.234 131.382 101.516 131.382 102.897C131.382 106.085 134.002 108.704 137.19 108.704C138.614 108.704 139.896 108.183 140.896 107.326C140.897 107.326 140.897 107.325 140.898 107.325L141.653 106.665L142.156 107.47C143.448 109.589 144.43 111.914 145.05 114.343L145.053 114.355L145.242 115.208ZM106.806 99.2045C107.475 100.219 107.847 101.461 107.847 102.744C107.847 106.406 104.846 109.406 101.185 109.406C99.8519 109.406 98.6435 109.032 97.5974 108.359C97.4861 108.288 97.3767 108.213 97.2691 108.135C97.2015 108.249 97.135 108.364 97.0694 108.48C96.0653 110.251 95.298 112.139 94.732 114.108C94.6954 114.236 94.6596 114.364 94.6247 114.492C94.7549 114.518 94.8838 114.548 95.0112 114.583C97.8194 115.337 99.9135 117.936 99.9135 121.001C99.9135 124.066 97.8195 126.665 95.0113 127.419C94.8839 127.453 94.755 127.484 94.6247 127.51C94.6604 127.638 94.6971 127.766 94.7345 127.893C95.2984 129.804 96.0575 131.6 96.9769 133.314C97.0397 133.431 97.1032 133.547 97.1674 133.664C97.2774 133.59 97.3896 133.52 97.5039 133.452C98.4989 132.862 99.6534 132.494 100.931 132.494C104.592 132.494 107.593 135.494 107.593 139.156C107.593 140.437 107.181 141.677 106.543 142.691C106.471 142.804 106.398 142.914 106.321 143.021C106.435 143.089 106.549 143.156 106.664 143.223C108.486 144.276 110.425 145.089 112.446 145.661C112.574 145.697 112.702 145.733 112.83 145.767C112.854 145.636 112.882 145.506 112.913 145.378C113.618 142.467 116.225 140.275 119.391 140.275C122.559 140.275 125.166 142.47 125.87 145.429C125.901 145.557 125.928 145.687 125.951 145.818C126.08 145.786 126.208 145.752 126.336 145.718C126.954 145.551 127.563 145.358 128.163 145.139C129.295 144.728 130.393 144.229 131.452 143.657C131.623 143.564 131.793 143.47 131.963 143.373C132.078 143.308 132.193 143.241 132.308 143.173C132.23 143.066 132.155 142.957 132.083 142.845C131.401 141.791 130.985 140.54 130.985 139.207C130.985 135.545 133.986 132.545 137.647 132.545C138.98 132.545 140.189 132.919 141.235 133.591C141.346 133.663 141.455 133.738 141.563 133.816C141.63 133.701 141.695 133.585 141.76 133.469C142.722 131.741 143.485 129.859 144.049 127.893C144.086 127.766 144.122 127.638 144.157 127.51C144.026 127.484 143.898 127.453 143.77 127.419C140.962 126.665 138.868 124.066 138.868 121.001C138.868 117.936 140.962 115.337 143.77 114.583C143.898 114.548 144.026 114.518 144.157 114.492C144.122 114.363 144.087 114.236 144.051 114.108C143.481 112.091 142.673 110.159 141.663 108.381C141.597 108.264 141.529 108.148 141.461 108.033C141.358 108.118 141.253 108.2 141.145 108.279C140.031 109.093 138.678 109.559 137.24 109.559C133.579 109.559 130.579 106.558 130.579 102.897C130.579 101.512 130.998 100.169 131.759 99.0966C131.837 98.9874 131.918 98.881 132.003 98.7776C131.885 98.7123 131.767 98.6478 131.649 98.5842C130.039 97.7195 128.352 97.0122 126.588 96.4961C126.461 96.4589 126.333 96.4227 126.205 96.3875C126.179 96.518 126.15 96.6472 126.117 96.7749C125.367 99.6823 122.763 101.829 119.645 101.829C116.477 101.829 113.823 99.587 113.16 96.6251C113.131 96.4964 113.106 96.3663 113.085 96.2349C112.956 96.2665 112.827 96.2991 112.699 96.3329C110.68 96.8643 108.743 97.671 106.924 98.6823C106.807 98.7471 106.691 98.8128 106.575 98.8793C106.656 98.9848 106.733 99.0933 106.806 99.2045ZM107.153 99.0092C107.856 100.087 108.244 101.396 108.244 102.744C108.244 106.625 105.066 109.803 101.185 109.803C99.7805 109.803 98.5036 109.41 97.3989 108.704C96.4224 110.431 95.6732 112.274 95.1184 114.201C98.0948 115.002 100.31 117.755 100.31 121.001C100.31 124.246 98.0961 126.998 95.1211 127.8C95.6734 129.668 96.4153 131.424 97.3142 133.103C98.3605 132.486 99.5795 132.097 100.931 132.097C104.811 132.097 107.989 135.275 107.989 139.156C107.989 140.515 107.555 141.823 106.885 142.892C108.663 143.918 110.556 144.712 112.53 145.272C113.282 142.196 116.039 139.878 119.391 139.878C122.748 139.878 125.507 142.203 126.254 145.329C128.17 144.81 130.009 144.027 131.739 143.044C131.026 141.935 130.589 140.617 130.589 139.207C130.589 135.326 133.767 132.148 137.647 132.148C139.05 132.148 140.326 132.54 141.43 133.245C142.365 131.56 143.11 129.723 143.663 127.801C140.687 127 138.471 124.247 138.471 121.001C138.471 117.754 140.688 115.001 143.665 114.2C143.108 112.237 142.323 110.356 141.345 108.625C140.171 109.472 138.75 109.956 137.24 109.956C133.36 109.956 130.182 106.777 130.182 102.897C130.182 101.451 130.614 100.042 131.408 98.9057C129.844 98.0694 128.208 97.3851 126.499 96.8835C125.702 99.9541 122.948 102.226 119.645 102.226C116.29 102.226 113.482 99.8556 112.775 96.7232C110.813 97.2419 108.928 98.0259 107.153 99.0092Z" fill="#DC4405"/>
<defs>
<linearGradient id="paint0_linear" x1="1.49633e-07" y1="241" x2="285.46" y2="150.894" gradientUnits="userSpaceOnUse">
<stop offset="0.0196881" stop-color="#DC4405"/>
<stop offset="1" stop-color="#DC4405" stop-opacity="0.64"/>
</linearGradient>
</defs>
</svg>
