<svg width="241" height="241" viewBox="0 0 241 241" fill="none" xmlns="http://www.w3.org/2000/svg">
<path d="M168.052 100.504L167.769 99.9371L167.911 99.2281H167.485L158.835 72H80.1284L81.5465 77.2471H74.7395L82.5392 103.766C82.2556 103.766 82.1137 104.05 82.1137 104.192L73.0377 140.354C72.8959 140.637 73.1795 141.063 73.4632 141.205H73.605H73.7468L82.5392 169H162.805L161.104 163.753H167.627L158.976 135.958L167.485 100.504H168.052ZM158.125 73.2763L166.351 99.0863H88.7789L81.8301 73.2763H158.125ZM76.4412 78.5234H81.8301L87.6444 99.7953L86.9354 102.915H83.6737L76.4412 78.5234ZM83.2482 104.475L86.5099 104.333L79.1357 135.39H78.852L78.9939 135.958L78.852 136.667H79.2775L80.5538 140.496H74.4558L83.2482 104.475ZM161.104 167.724H83.5319L75.3067 141.914H80.6956L87.7863 163.753H159.827L161.104 167.724ZM165.925 162.477H88.6371L80.5538 136.667H157.984L165.925 162.477ZM157.984 135.39H80.412L88.9208 100.504H166.351L157.984 135.39Z" fill="black"/>
<path d="M150.892 143.048C149.049 142.906 147.205 143.474 145.929 144.75C143.234 147.586 143.376 151.982 146.071 154.677C147.347 156.095 149.191 156.946 151.034 157.088H151.601C155.147 157.088 157.983 154.393 157.983 150.848C157.983 150.706 157.983 150.706 157.983 150.564C157.841 146.735 154.721 143.474 150.892 143.048ZM155.147 154.677C154.012 155.67 152.594 156.095 151.176 155.953C149.616 155.811 148.056 155.102 146.922 153.826C144.653 151.557 144.511 148.012 146.78 145.601C147.772 144.75 149.049 144.183 150.325 144.325H150.751C154.012 144.608 156.565 147.303 156.707 150.706C156.707 152.124 156.139 153.542 155.147 154.677Z" fill="#DC4405"/>
<path d="M93.0333 108.162H151.177C151.602 108.162 151.744 107.737 151.744 107.453C151.744 107.17 151.46 106.886 151.177 106.886H93.0333C92.6078 106.886 92.3242 107.028 92.3242 107.453C92.3242 107.879 92.466 108.162 93.0333 108.162C92.8915 108.162 92.8915 108.162 93.0333 108.162Z" fill="#DC4405"/>
<path d="M91.7569 113.409H117.567C117.992 113.409 118.134 112.984 118.134 112.7C118.134 112.416 117.85 112.133 117.567 112.133H91.7569C91.3315 112.133 91.0479 112.275 91.0479 112.7C91.0479 113.126 91.1897 113.409 91.6151 113.409H91.7569Z" fill="#DC4405"/>
<path d="M113.738 127.591H87.786C87.3606 127.591 87.2188 128.016 87.2188 128.3C87.2188 128.583 87.5024 128.867 87.786 128.867H113.596C114.021 128.867 114.305 128.725 114.305 128.3C114.305 127.874 114.163 127.591 113.738 127.591C113.88 127.591 113.738 127.591 113.738 127.591Z" fill="#DC4405"/>
<path d="M115.582 141.205C115.582 140.779 115.298 140.495 114.873 140.495H89.0626C88.6371 140.495 88.3535 140.637 88.3535 141.063C88.3535 141.488 88.4953 141.772 88.9208 141.772H89.0626H114.873C115.298 141.772 115.582 141.488 115.582 141.205Z" fill="#DC4405"/>
<path d="M102.109 150.848H93.0333C92.6078 150.848 92.3242 150.99 92.3242 151.415C92.3242 151.841 92.466 152.124 92.8915 152.124H93.0333H102.109C102.535 152.124 102.677 151.699 102.677 151.415C102.535 151.132 102.393 150.848 102.109 150.848Z" fill="#DC4405"/>
<path d="M125.366 145.743H90.4803C90.0549 145.743 89.9131 146.168 89.9131 146.452C89.9131 146.735 90.1967 147.019 90.4803 147.019H125.366C125.792 147.019 125.934 146.594 125.934 146.31C125.792 146.026 125.65 145.743 125.366 145.743Z" fill="#DC4405"/>
<path d="M133.024 113.409C133.45 113.409 133.733 113.267 133.733 112.842C133.733 112.416 133.592 112.133 133.166 112.133H133.024H122.672C122.247 112.133 121.963 112.275 121.963 112.7C121.963 113.126 122.105 113.409 122.53 113.409H122.672H133.024Z" fill="#DC4405"/>
<path d="M103.385 90.152H93.0331C92.6076 90.152 92.4658 90.5774 92.4658 90.861C92.4658 91.1447 92.7494 91.4283 93.0331 91.4283H103.385C103.811 91.4283 103.953 91.0029 103.953 90.7192C103.811 90.4356 103.669 90.152 103.385 90.152Z" fill="#DC4405"/>
<path d="M91.7569 87.5993H111.043C111.469 87.5993 111.611 87.1739 111.611 86.8902C111.611 86.6066 111.327 86.323 111.043 86.323H91.7569C91.3315 86.323 91.0479 86.4648 91.0479 86.8902C91.0479 87.3157 91.1897 87.5993 91.6151 87.5993H91.7569Z" fill="#DC4405"/>
<path d="M116.857 117.947C116.857 118.373 117.141 118.656 117.566 118.656H138.271C138.697 118.656 138.98 118.514 138.98 118.089C138.98 117.664 138.838 117.38 138.413 117.38H138.271H117.566C117.141 117.238 116.857 117.522 116.857 117.947Z" fill="#DC4405"/>
<path d="M142.101 117.238C141.675 117.238 141.392 117.38 141.392 117.805C141.392 118.231 141.533 118.514 141.959 118.514H142.101H147.348C147.773 118.514 147.915 118.089 147.915 117.805C147.915 117.522 147.631 117.238 147.348 117.238H142.101Z" fill="#DC4405"/>
<path d="M90.4803 118.514H111.185C111.61 118.514 111.752 118.089 111.752 117.805C111.752 117.522 111.469 117.238 111.185 117.238H90.4803C90.0549 117.238 89.9131 117.664 89.9131 117.947C89.9131 118.231 90.1967 118.514 90.4803 118.514Z" fill="#DC4405"/>
<path d="M88.4951 123.053C88.4951 123.478 88.7787 123.762 89.2042 123.762H147.347C147.773 123.762 147.915 123.336 147.915 123.053C147.915 122.769 147.631 122.485 147.347 122.485H89.2042C88.7787 122.485 88.4951 122.769 88.4951 123.053Z" fill="#DC4405"/>
<circle cx="120.5" cy="120.5" r="120" stroke="url(#paint0_linear)"/>
<defs>
<linearGradient id="paint0_linear" x1="1.49633e-07" y1="241" x2="285.46" y2="150.894" gradientUnits="userSpaceOnUse">
<stop offset="0.0196881" stop-color="#DC4405"/>
<stop offset="1" stop-color="#DC4405" stop-opacity="0.64"/>
</linearGradient>
</defs>
</svg>
