<svg width="19" height="19" viewBox="0 0 19 19" fill="none" xmlns="http://www.w3.org/2000/svg">
<path d="M9.5 0C7.62108 0 5.78435 0.557165 4.22209 1.60104C2.65982 2.64491 1.44218 4.12861 0.723148 5.86451C0.00411616 7.6004 -0.184015 9.51054 0.182544 11.3534C0.549104 13.1962 1.45389 14.8889 2.78249 16.2175C4.11109 17.5461 5.80383 18.4509 7.64664 18.8175C9.48946 19.184 11.3996 18.9959 13.1355 18.2768C14.8714 17.5578 16.3551 16.3402 17.399 14.7779C18.4428 13.2156 19 11.3789 19 9.5C18.9974 6.98125 17.9956 4.56641 16.2146 2.78539C14.4336 1.00436 12.0188 0.00262644 9.5 0ZM9.5 18.0078C7.81731 18.0078 6.17241 17.5089 4.7733 16.574C3.3742 15.6391 2.28373 14.3104 1.63979 12.7558C0.995854 11.2012 0.82737 9.49056 1.15565 7.8402C1.48392 6.18984 2.29422 4.67389 3.48406 3.48405C4.6739 2.29421 6.18985 1.48392 7.84021 1.15564C9.49056 0.827366 11.2012 0.995849 12.7558 1.63979C14.3104 2.28372 15.6392 3.37419 16.574 4.7733C17.5089 6.17241 18.0078 7.81731 18.0078 9.5C18.0052 11.7556 17.108 13.9181 15.513 15.513C13.9181 17.108 11.7556 18.0052 9.5 18.0078ZM11.4843 13.114C11.4843 13.2455 11.4321 13.3717 11.339 13.4647C11.246 13.5578 11.1198 13.61 10.9883 13.61H8.50784C8.37627 13.61 8.25008 13.5578 8.15705 13.4647C8.06402 13.3717 8.01175 13.2455 8.01175 13.114C8.01175 12.9824 8.06402 12.8562 8.15705 12.7632C8.25008 12.6701 8.37627 12.6179 8.50784 12.6179H9.25196V9.31149H9.09817C8.96661 9.31149 8.84042 9.25922 8.74739 9.16619C8.65436 9.07315 8.60209 8.94697 8.60209 8.8154C8.60209 8.68383 8.65436 8.55765 8.74739 8.46462C8.84042 8.37158 8.96661 8.31932 9.09817 8.31932H9.74804C9.87961 8.31932 10.0058 8.37158 10.0988 8.46462C10.1919 8.55765 10.2441 8.68383 10.2441 8.8154V12.6179H10.9883C11.1198 12.6179 11.246 12.6701 11.339 12.7632C11.4321 12.8562 11.4843 12.9824 11.4843 13.114ZM8.70627 6.67976C8.70627 6.52278 8.75282 6.36932 8.84004 6.23879C8.92725 6.10826 9.05122 6.00652 9.19625 5.94645C9.34129 5.88637 9.50088 5.87065 9.65485 5.90128C9.80882 5.93191 9.95025 6.0075 10.0613 6.11851C10.1723 6.22951 10.2479 6.37094 10.2785 6.52491C10.3091 6.67888 10.2934 6.83848 10.2333 6.98351C10.1732 7.12855 10.0715 7.25251 9.94098 7.33973C9.81045 7.42694 9.65699 7.4735 9.5 7.4735C9.39577 7.4735 9.29255 7.45297 9.19625 7.41308C9.09995 7.37319 9.01245 7.31472 8.93875 7.24102C8.86504 7.16731 8.80658 7.07981 8.76669 6.98351C8.7268 6.88721 8.70627 6.784 8.70627 6.67976Z" fill="white"/>
</svg>
