<svg width="50" height="42" viewBox="0 0 50 42" fill="none" xmlns="http://www.w3.org/2000/svg">
<path d="M47.5194 23.1787C48.7368 19.5256 46.7622 15.5772 43.109 14.3599C39.4559 13.1425 35.5075 15.1171 34.2902 18.7703C33.0728 22.4234 35.0474 26.3718 38.7006 27.5891C42.3537 28.8065 46.3021 26.8319 47.5194 23.1787Z" fill="white"/>
<path d="M15.5328 13.9445C19.3834 13.9445 22.505 10.8229 22.505 6.97223C22.505 3.12157 19.3834 0 15.5328 0C11.6821 0 8.56055 3.12157 8.56055 6.97223C8.56055 10.8229 11.6821 13.9445 15.5328 13.9445Z" fill="white"/>
<path d="M15.5328 42C19.3834 42 22.505 38.8784 22.505 35.0278C22.505 31.1771 19.3834 28.0555 15.5328 28.0555C11.6821 28.0555 8.56055 31.1771 8.56055 35.0278C8.56055 38.8784 11.6821 42 15.5328 42Z" fill="white"/>
<path d="M32.609 27.9303C31.4301 27.9638 30.274 28.2635 29.2273 28.8071L27.7243 26.3021C28.6019 25.6853 29.318 24.8663 29.8121 23.9144C30.3063 22.9624 30.5639 21.9054 30.5633 20.8328C30.5666 19.8482 30.3422 18.8761 29.9076 17.9926C29.4731 17.109 28.8402 16.3379 28.0583 15.7394L29.8118 13.2344C31.3747 13.846 33.1124 13.8369 34.6689 13.2089C36.2253 12.5809 37.4827 11.3814 38.1834 9.85631C38.8841 8.33121 38.9752 6.59588 38.4378 5.00584C37.9005 3.4158 36.7755 2.09142 35.2933 1.304C33.8111 0.516576 32.0839 0.325734 30.4655 0.770566C28.8472 1.2154 27.4602 2.26223 26.5887 3.69661C25.7172 5.13098 25.4271 6.84432 25.778 8.48561C26.1288 10.1269 27.094 11.5719 28.4758 12.5246L26.8058 14.9461C25.9359 14.5147 24.9795 14.2863 24.0086 14.2781C22.3281 14.2951 20.7159 14.9449 19.4933 16.0979C18.2707 17.2509 17.5275 18.8223 17.4121 20.4988H13.9469C13.8904 19.1325 13.4336 17.813 12.6334 16.7041C11.8331 15.5953 10.7246 14.7461 9.44566 14.2621C8.16672 13.7781 6.77374 13.6806 5.43986 13.9818C4.10598 14.283 2.89003 14.9696 1.94314 15.9561C0.996249 16.9427 0.36018 18.1858 0.113993 19.5309C-0.132194 20.876 0.0223588 22.2639 0.55844 23.5218C1.09452 24.7798 1.98849 25.8526 3.12923 26.6067C4.26997 27.3607 5.60717 27.763 6.97463 27.7633C8.61318 27.7687 10.2005 27.1927 11.4543 26.1377C12.708 25.0827 13.5469 23.6172 13.8216 22.0018H17.4538C17.7337 23.514 18.5341 24.8805 19.7161 25.8642C20.8981 26.848 22.3872 27.3869 23.9251 27.3876C24.7224 27.3817 25.513 27.2405 26.2631 26.9701L27.8913 29.6421C27.161 30.3022 26.576 31.1071 26.1735 32.0055C25.771 32.904 25.5598 33.8763 25.5533 34.8608C25.5452 36.2379 25.945 37.5866 26.7025 38.7368C27.46 39.887 28.5411 40.787 29.8094 41.3235C31.0778 41.86 32.4767 42.0088 33.8296 41.7512C35.1824 41.4936 36.4287 40.8411 37.4112 39.8761C38.3937 38.911 39.0684 37.6766 39.3501 36.3286C39.6319 34.9806 39.5082 33.5793 38.9945 32.3015C38.4808 31.0237 37.6003 29.9266 36.4639 29.1487C35.3275 28.3708 33.9861 27.9468 32.609 27.9303Z" fill="white"/>
<path d="M26.8333 20.4167C26.8333 22.0275 25.5275 23.3333 23.9167 23.3333C22.3058 23.3333 21 22.0275 21 20.4167C21 18.8058 22.3058 17.5 23.9167 17.5C25.5275 17.5 26.8333 18.8058 26.8333 20.4167Z" fill="white"/>
<path fill-rule="evenodd" clip-rule="evenodd" d="M28.8333 20.4167C28.8333 23.1321 26.6321 25.3333 23.9167 25.3333C21.2013 25.3333 19 23.1321 19 20.4167C19 17.7013 21.2013 15.5 23.9167 15.5C26.6321 15.5 28.8333 17.7013 28.8333 20.4167ZM23.9167 23.3333C25.5275 23.3333 26.8333 22.0275 26.8333 20.4167C26.8333 18.8058 25.5275 17.5 23.9167 17.5C22.3058 17.5 21 18.8058 21 20.4167C21 22.0275 22.3058 23.3333 23.9167 23.3333Z" fill="#DC4405"/>
</svg>
