<svg width="30" height="31" viewBox="0 0 30 31" fill="none" xmlns="http://www.w3.org/2000/svg">
<path d="M15 0.0361328C6.72867 0.0361328 0 6.7648 0 15.0361C0 23.3075 6.72867 30.0361 15 30.0361C23.2713 30.0361 30 23.3075 30 15.0361C30 6.7648 23.2713 0.0361328 15 0.0361328ZM21.5625 16.2861H8.4375C7.74742 16.2861 7.18758 15.7262 7.18758 15.0361C7.18758 14.3461 7.74742 13.7862 8.4375 13.7862H21.5625C22.2526 13.7862 22.8124 14.3461 22.8124 15.0361C22.8124 15.7262 22.2526 16.2861 21.5625 16.2861Z" fill="url(#paint0_linear)"/>
<defs>
<linearGradient id="paint0_linear" x1="1.86265e-08" y1="30.0361" x2="35.5345" y2="18.8196" gradientUnits="userSpaceOnUse">
<stop offset="0.0196881" stop-color="#DC4405"/>
<stop offset="1" stop-color="#DC4405" stop-opacity="0.64"/>
</linearGradient>
</defs>
</svg>
