<svg width="16" height="16" viewBox="0 0 16 16" fill="none" xmlns="http://www.w3.org/2000/svg">
<path fill-rule="evenodd" clip-rule="evenodd" d="M4.89772 6.53105C5.97718 8.39277 7.65633 10.0143 9.45542 11.1553L11.2545 9.2936C11.8542 8.7531 12.8137 8.7531 13.2935 9.41371L15.6923 12.7768C16.1121 13.3173 16.1121 14.038 15.6323 14.5785C15.2125 15.0589 14.7328 15.4193 14.1331 15.6595C10.8347 17.0408 6.5169 13.9179 4.29802 11.6958C2.07914 9.47377 -1.03929 5.14977 0.340017 1.84671C0.579896 1.24615 0.939714 0.765709 1.41947 0.34532C1.9592 -0.135125 2.67884 -0.0750695 3.21857 0.285264L6.63684 2.68749C7.29651 3.16793 7.23654 4.18888 6.69681 4.72938L4.89772 6.53105ZM3.9382 6.41093L6.15709 4.18888C6.45693 3.94866 6.45693 3.52827 6.15709 3.28804L2.79878 0.88582C2.49893 0.705653 2.19908 0.645598 1.89923 0.88582C-3.31814 5.5101 10.4749 19.3829 15.0926 14.0981C15.3325 13.8578 15.2725 13.4975 15.0926 13.1972L12.6938 9.8341C12.5139 9.53383 12.0341 9.59388 11.7942 9.8341L9.57536 12.0562C7.29651 10.855 5.19757 8.69305 3.9382 6.41093Z" fill="white"/>
</svg>
