<svg width="30" height="31" viewBox="0 0 30 31" fill="none" xmlns="http://www.w3.org/2000/svg">
<g clip-path="url(#clip0)">
<path d="M15 0.0361328C6.72867 0.0361328 0 6.7648 0 15.0361C0 23.3075 6.72867 30.0361 15 30.0361C23.2713 30.0361 30 23.3075 30 15.0361C30 6.7648 23.2713 0.0361328 15 0.0361328ZM21.5625 16.2861H16.2499V21.5986C16.2499 22.2887 15.6901 22.8486 15 22.8486C14.3099 22.8486 13.7501 22.2887 13.7501 21.5986V16.2861H8.4375C7.74742 16.2861 7.18758 15.7262 7.18758 15.0361C7.18758 14.3461 7.74742 13.7862 8.4375 13.7862H13.7501V8.47363C13.7501 7.78355 14.3099 7.22371 15 7.22371C15.6901 7.22371 16.2499 7.78355 16.2499 8.47363V13.7862H21.5625C22.2526 13.7862 22.8124 14.3461 22.8124 15.0361C22.8124 15.7262 22.2526 16.2861 21.5625 16.2861Z" fill="#8E8E8E"/>
</g>
<defs>
<clipPath id="clip0">
<rect width="30" height="30" fill="white" transform="translate(0 0.0361328)"/>
</clipPath>
</defs>
</svg>
