<svg width="30" height="30" viewBox="0 0 30 30" fill="none" xmlns="http://www.w3.org/2000/svg">
<circle cx="15" cy="15" r="15" fill="#61A8DE"/>
<path d="M21.909 8.05465L6.36112 13.9773C5.85752 14.1691 5.88803 14.8756 6.40643 15.0252L10.3573 16.1656L11.8318 20.7391C11.9858 21.2168 12.6051 21.3617 12.9636 21.0038L15.0063 18.965L19.0143 21.8408C19.5048 22.1928 20.2033 21.9313 20.3278 21.3491L22.9824 8.94321C23.1124 8.33553 22.5008 7.82923 21.909 8.05465ZM19.9597 10.8078L12.7378 17.0506C12.6658 17.1128 12.62 17.199 12.6093 17.2923L12.3312 19.7085C12.3222 19.7873 12.2094 19.7977 12.1853 19.722L11.0413 16.1187C10.9889 15.9537 11.0572 15.7749 11.2074 15.6839L19.7357 10.5135C19.9318 10.3945 20.1326 10.6584 19.9597 10.8078Z" fill="white"/>
</svg>
