<svg width="30" height="30" viewBox="0 0 30 30" fill="none" xmlns="http://www.w3.org/2000/svg">
<circle cx="15" cy="15" r="15" fill="#7D3DAF"/>
<path d="M22.9056 11.0511L22.9008 11.0316C22.5075 9.44165 20.7344 7.73555 19.1061 7.3806L19.0877 7.37682C16.454 6.87439 13.7835 6.87439 11.1504 7.37682L11.1315 7.3806C9.5037 7.73555 7.7306 9.44165 7.33676 11.0316L7.33244 11.0511C6.84622 13.2715 6.84622 15.5232 7.33244 17.7436L7.33676 17.7631C7.7138 19.2852 9.35486 20.9129 10.9224 21.3606V23.1354C10.9224 23.7777 11.7052 24.0932 12.1504 23.6297L13.9486 21.7605C14.3386 21.7823 14.7288 21.7945 15.119 21.7945C16.4448 21.7945 17.7711 21.6691 19.0877 21.4179L19.1061 21.4141C20.7344 21.0592 22.5075 19.3531 22.9008 17.7632L22.9056 17.7437C23.3919 15.5232 23.3919 13.2715 22.9056 11.0511ZM21.4826 17.4217C21.2201 18.4589 19.8738 19.7485 18.8041 19.9868C17.4037 20.253 15.9922 20.3669 14.5822 20.3278C14.5542 20.3271 14.5272 20.3379 14.5076 20.358C14.3075 20.5634 13.1947 21.7058 13.1947 21.7058L11.7981 23.1391C11.696 23.2455 11.5167 23.1731 11.5167 23.0262V20.0861C11.5167 20.0375 11.482 19.9962 11.4343 19.9869C11.434 19.9868 11.4337 19.9868 11.4335 19.9867C10.3638 19.7485 9.01802 18.4589 8.75491 17.4216C8.31731 15.4146 8.31731 13.38 8.75491 11.373C9.01802 10.3357 10.3638 9.04614 11.4335 8.80789C13.8792 8.34273 16.3589 8.34273 18.8041 8.80789C19.8743 9.04614 21.2201 10.3357 21.4826 11.373C21.9207 13.3801 21.9207 15.4146 21.4826 17.4217Z" fill="white"/>
<path d="M17.4468 18.779C17.2823 18.7291 17.1256 18.6956 16.98 18.6352C15.4719 18.0095 14.0839 17.2022 12.9844 15.9648C12.3592 15.2611 11.8698 14.4667 11.4562 13.6259C11.26 13.2272 11.0947 12.8129 10.9262 12.4013C10.7725 12.0259 10.9988 11.6381 11.2371 11.3553C11.4608 11.0899 11.7485 10.8868 12.0601 10.7371C12.3033 10.6202 12.5433 10.6876 12.7209 10.8937C13.1049 11.3394 13.4576 11.8079 13.7433 12.3246C13.9189 12.6424 13.8707 13.0308 13.5524 13.2471C13.475 13.2996 13.4045 13.3613 13.3324 13.4207C13.2692 13.4727 13.2098 13.5253 13.1664 13.5957C13.0872 13.7246 13.0834 13.8767 13.1344 14.0168C13.527 15.0956 14.1886 15.9344 15.2744 16.3862C15.4482 16.4585 15.6227 16.5427 15.8228 16.5193C16.1581 16.4802 16.2666 16.1125 16.5015 15.9204C16.7311 15.7326 17.0245 15.7302 17.2718 15.8867C17.5192 16.0432 17.759 16.2113 17.9974 16.3812C18.2314 16.5479 18.4643 16.711 18.6802 16.901C18.8877 17.0838 18.9591 17.3236 18.8423 17.5716C18.6283 18.0258 18.3171 18.4037 17.868 18.645C17.7412 18.713 17.5898 18.735 17.4468 18.779C17.5898 18.735 17.2823 18.7291 17.4468 18.779Z" fill="white"/>
<path d="M15.1232 10.2176C17.0959 10.2729 18.7162 11.5821 19.0634 13.5324C19.1226 13.8647 19.1436 14.2044 19.17 14.5417C19.181 14.6836 19.1007 14.8184 18.9476 14.8202C18.7895 14.8221 18.7183 14.6898 18.708 14.548C18.6877 14.2673 18.6736 13.9853 18.635 13.7069C18.4307 12.2374 17.2589 11.0216 15.7962 10.7607C15.5761 10.7215 15.3508 10.7111 15.1279 10.6877C14.9869 10.6729 14.8023 10.6644 14.7711 10.4892C14.7449 10.3423 14.8689 10.2253 15.0088 10.2178C15.0468 10.2157 15.085 10.2175 15.1232 10.2176C15.085 10.2175 17.0959 10.2729 15.1232 10.2176Z" fill="white"/>
<path d="M18.1211 14.1038C18.1179 14.1285 18.1162 14.1864 18.1017 14.2409C18.0494 14.439 17.7491 14.4638 17.68 14.2639C17.6595 14.2046 17.6564 14.1371 17.6563 14.0732C17.6556 13.6554 17.5648 13.238 17.3541 12.8745C17.1375 12.5009 16.8066 12.1868 16.4185 11.9967C16.1838 11.8818 15.93 11.8104 15.6728 11.7678C15.5604 11.7492 15.4468 11.7379 15.3338 11.7222C15.1969 11.7032 15.1238 11.6159 15.1303 11.481C15.1363 11.3546 15.2287 11.2637 15.3665 11.2715C15.8192 11.2972 16.2565 11.395 16.659 11.6081C17.4774 12.0416 17.945 12.7258 18.0814 13.6393C18.0876 13.6807 18.0975 13.7217 18.1007 13.7633C18.1084 13.8658 18.1133 13.9685 18.1211 14.1038C18.1133 13.9685 18.1179 14.1285 18.1211 14.1038Z" fill="white"/>
<path d="M16.8943 14.0559C16.7292 14.0589 16.6409 13.9675 16.6239 13.8162C16.612 13.7107 16.6027 13.6038 16.5775 13.5011C16.5279 13.299 16.4205 13.1116 16.2504 12.9877C16.1701 12.9292 16.0791 12.8866 15.9838 12.8591C15.8628 12.8241 15.7371 12.8338 15.6163 12.8042C15.4851 12.772 15.4125 12.6658 15.4332 12.5427C15.4519 12.4307 15.5609 12.3433 15.6832 12.3522C16.4481 12.4074 16.9947 12.8028 17.0727 13.7032C17.0782 13.7667 17.0847 13.8339 17.0706 13.8946C17.0465 13.9987 16.9694 14.0508 16.8943 14.0559C16.9694 14.0508 16.7292 14.0589 16.8943 14.0559Z" fill="white"/>
</svg>
