<svg width="80" height="80" viewBox="0 0 80 80" fill="none" xmlns="http://www.w3.org/2000/svg">
<path d="M40 0C32.0888 0 24.3552 2.34596 17.7772 6.74121C11.1992 11.1365 6.07234 17.3836 3.04484 24.6927C0.0173313 32.0017 -0.774802 40.0444 0.768607 47.8036C2.31202 55.5628 6.12165 62.6902 11.7157 68.2843C17.3098 73.8784 24.4372 77.688 32.1964 79.2314C39.9556 80.7748 47.9983 79.9827 55.3073 76.9552C62.6164 73.9277 68.8635 68.8008 73.2588 62.2228C77.654 55.6448 80 47.9112 80 40C80 29.3913 75.7857 19.2172 68.2843 11.7157C60.7828 4.21427 50.6087 0 40 0V0ZM40 77.672C32.5492 77.672 25.2657 75.4626 19.0706 71.3231C12.8754 67.1837 8.04693 61.3001 5.19563 54.4164C2.34432 47.5328 1.59829 39.9582 3.05187 32.6506C4.50546 25.3429 8.09337 18.6304 13.3619 13.3619C18.6304 8.09335 25.3429 4.50544 32.6506 3.05186C39.9582 1.59827 47.5328 2.34431 54.4165 5.19561C61.3001 8.04691 67.1837 12.8754 71.3231 19.0706C75.4626 25.2657 77.672 32.5492 77.672 40C77.672 49.9912 73.703 59.5732 66.6381 66.6381C59.5733 73.703 49.9912 77.672 40 77.672Z" fill="white"/>
<path d="M53.5 39.134C54.1667 39.5189 54.1667 40.4811 53.5 40.866L34 52.1244C33.3333 52.5093 32.5 52.0281 32.5 51.2583L32.5 28.7417C32.5 27.9719 33.3333 27.4907 34 27.8756L53.5 39.134Z" fill="white"/>
</svg>
