<svg width="30" height="30" viewBox="0 0 30 30" fill="none" xmlns="http://www.w3.org/2000/svg">
<circle cx="15" cy="15" r="15" fill="#1BD741"/>
<path d="M7 23.1949L8.20293 18.9225C7.42938 17.6083 7.02209 16.1131 7.02209 14.5771C7.02209 9.84768 10.8698 6 15.5992 6C20.3286 6 24.1763 9.84768 24.1763 14.5771C24.1763 19.3066 20.3286 23.1542 15.5992 23.1542C14.1255 23.1542 12.6825 22.777 11.406 22.0607L7 23.1949ZM11.6313 20.5003L11.8938 20.6606C13.0068 21.3401 14.2881 21.6993 15.5992 21.6993C19.5264 21.6993 22.7213 18.5043 22.7213 14.5771C22.7213 10.65 19.5264 7.45496 15.5992 7.45496C11.672 7.45496 8.47706 10.65 8.47706 14.5771C8.47706 15.9455 8.86596 17.2743 9.60164 18.4199L9.77844 18.6952L9.08572 21.1556L11.6313 20.5003Z" fill="white"/>
<path d="M13.1898 10.5848L12.6332 10.5545C12.4584 10.5449 12.2869 10.6034 12.1548 10.7181C11.885 10.9524 11.4536 11.4054 11.3211 11.9957C11.1235 12.8758 11.4288 13.9536 12.2192 15.0313C13.0096 16.1091 14.4825 17.8335 17.087 18.57C17.9263 18.8073 18.5866 18.6473 19.096 18.3214C19.4994 18.0634 19.7775 17.6491 19.8778 17.1809L19.9666 16.7658C19.9948 16.6339 19.9279 16.5 19.8053 16.4436L17.9244 15.5766C17.8023 15.5203 17.6575 15.5559 17.5754 15.6623L16.8369 16.6196C16.7812 16.6919 16.6857 16.7206 16.5994 16.6903C16.0938 16.5126 14.3999 15.8031 13.4704 14.0128C13.4301 13.9351 13.4401 13.8409 13.4973 13.7746L14.203 12.9582C14.2751 12.8749 14.2933 12.7577 14.25 12.6564L13.4392 10.7595C13.3961 10.6585 13.2993 10.5908 13.1898 10.5848Z" fill="white"/>
</svg>
