<svg width="30" height="30" viewBox="0 0 30 30" fill="none" xmlns="http://www.w3.org/2000/svg">
<circle cx="15" cy="15" r="15" fill="#DC472E"/>
<path d="M17.4092 18.5748C17.4086 18.4813 17.3811 18.384 17.3465 18.2966C17.3003 18.1816 17.2013 18.1244 17.077 18.1123C16.9313 18.098 16.8147 18.1569 16.7091 18.2504C16.6668 18.2872 16.6475 18.3422 16.6475 18.3422L16.6497 21.3101V21.3833C16.6497 21.3833 16.675 21.4174 16.6789 21.4218C16.7647 21.5147 16.8648 21.5884 16.9929 21.6148C17.2041 21.6582 17.3531 21.5703 17.3943 21.3745C17.4048 21.3255 17.4108 21.2749 17.4108 21.2249C17.4119 20.3412 17.4136 19.458 17.4092 18.5748ZM17.4092 18.5748C17.4086 18.4813 17.3811 18.384 17.3465 18.2966C17.3003 18.1816 17.2013 18.1244 17.077 18.1123C16.9313 18.098 16.8147 18.1569 16.7091 18.2504C16.6668 18.2872 16.6475 18.3422 16.6475 18.3422L16.6497 21.3101V21.3833C16.6497 21.3833 16.675 21.4174 16.6789 21.4218C16.7647 21.5147 16.8648 21.5884 16.9929 21.6148C17.2041 21.6582 17.3531 21.5703 17.3943 21.3745C17.4048 21.3255 17.4108 21.2749 17.4108 21.2249C17.4119 20.3412 17.4136 19.458 17.4092 18.5748ZM20.7324 14.099C17.22 14.0236 13.706 14.0236 10.1931 14.099C8.97447 14.1248 8 15.1213 8 16.3405V21.8265C8 23.0462 8.97447 24.0427 10.1931 24.0686C13.706 24.1439 17.22 24.1439 20.7324 24.0686C21.9516 24.0427 22.926 23.0462 22.926 21.8265V16.3405C22.926 15.1213 21.9516 14.1248 20.7324 14.099ZM11.2248 22.3265H10.2118V16.6001H9.16309V15.6421H12.2757V16.5979H11.2248V22.3265V22.3265ZM14.8498 19.9496V22.3269H13.9529V21.7836C13.9205 21.8183 13.9023 21.837 13.8853 21.8562C13.6923 22.074 13.4734 22.2555 13.194 22.3517C13.0576 22.3984 12.9174 22.4144 12.7739 22.3896C12.5781 22.3572 12.4467 22.2445 12.3675 22.0663C12.2938 21.9019 12.2751 21.7259 12.2746 21.5488C12.2724 20.8944 12.2735 17.431 12.2735 17.3974H13.1682C13.1698 17.4277 13.1731 19.9139 13.1737 21.1265C13.1737 21.1925 13.1742 21.2601 13.1874 21.3244C13.2204 21.4872 13.3453 21.5571 13.502 21.4999C13.6824 21.4339 13.8198 21.3096 13.9353 21.1606C13.9524 21.1391 13.9524 21.1006 13.9524 21.0698V17.3919L14.8498 17.3897C14.8498 17.3898 14.8498 19.1258 14.8498 19.9496ZM18.2621 21.8518C18.1422 22.2126 17.8783 22.3962 17.4988 22.3924C17.1903 22.3896 16.9401 22.267 16.7339 22.0432C16.7108 22.0184 16.647 21.9508 16.647 21.9508V22.3258H15.7484V15.6415H16.647C16.647 16.3531 16.647 17.8418 16.647 17.8418C16.647 17.8418 16.6976 17.7406 16.7438 17.6883C16.8829 17.5327 17.0523 17.4123 17.2613 17.3595C17.6061 17.2731 18.0037 17.3798 18.1928 17.7829C18.3045 18.021 18.3358 18.2751 18.3358 18.5336C18.3375 19.4679 18.3375 20.4022 18.3364 21.3365C18.3358 21.5114 18.3177 21.6841 18.2621 21.8518ZM21.5809 21.6638C21.4253 22.1197 21.1036 22.3726 20.6317 22.4419C20.3392 22.4848 20.0494 22.4788 19.775 22.3545C19.3994 22.1851 19.1865 21.8788 19.0953 21.4889C19.0529 21.3074 19.032 21.1172 19.0298 20.9307C19.0227 20.1988 19.026 19.4663 19.0276 18.7343C19.0282 18.3516 19.1195 17.9985 19.3818 17.7054C19.6809 17.3705 20.0637 17.2457 20.5009 17.2738C20.6323 17.282 20.7665 17.3034 20.8913 17.3447C21.3164 17.4844 21.5435 17.8028 21.6326 18.2251C21.6667 18.3879 21.6794 18.5567 21.6821 18.7233C21.6893 19.1138 21.6794 19.9744 21.6794 19.9744H19.9586V21.2079C19.9586 21.4295 20.1379 21.6088 20.3595 21.6088C20.5806 21.6088 20.7599 21.4295 20.7599 21.2079V20.5738H21.6843C21.6843 20.5738 21.698 21.3223 21.5809 21.6638ZM20.7599 18.5171C20.7599 18.2961 20.5806 18.1162 20.3595 18.1162C20.1379 18.1162 19.9586 18.2961 19.9586 18.5171V19.2095H20.7599V18.5171ZM17.3465 18.2966C17.3003 18.1817 17.2013 18.1245 17.077 18.1124C16.9313 18.0981 16.8147 18.1569 16.7091 18.2504C16.6668 18.2873 16.6475 18.3423 16.6475 18.3423L16.6497 21.3102V21.3833C16.6497 21.3833 16.675 21.4174 16.6789 21.4218C16.7647 21.5148 16.8648 21.5885 16.9929 21.6149C17.2041 21.6583 17.3531 21.5703 17.3943 21.3745C17.4048 21.3256 17.4108 21.275 17.4108 21.225C17.4119 20.3412 17.4136 19.458 17.4092 18.5749C17.4086 18.4813 17.3811 18.384 17.3465 18.2966Z" fill="white"/>
<path d="M19.6428 7.75537L19.6425 12.7181H18.723L18.724 12.185C18.6224 12.2851 18.5356 12.3786 18.4402 12.4627C18.2712 12.6116 18.0797 12.7226 17.8557 12.7664C17.5119 12.8337 17.219 12.725 17.1093 12.3688C17.0728 12.2502 17.0507 12.1224 17.0498 11.9985V7.75537H17.9625V11.54C17.9625 11.5902 17.9665 11.6409 17.9753 11.69C18.003 11.846 18.1183 11.9194 18.2684 11.8673C18.4515 11.804 18.5912 11.6772 18.7097 11.5278C18.7265 11.5065 18.7235 11.4667 18.7235 11.4354V7.75537H19.6428Z" fill="white"/>
<path d="M12.0373 8.61775C11.8377 7.77631 11.4195 6 11.4195 6H10.373C10.373 6 11.177 8.66642 11.5366 9.85557C11.5495 9.89858 11.5554 9.94527 11.5554 9.9903L11.5551 12.717H12.52L12.5196 9.9903C12.5196 9.94527 12.5256 9.89858 12.5385 9.85557C12.898 8.66642 13.702 6 13.702 6H12.6556C12.6556 6 12.2373 7.77631 12.0377 8.61775H12.0373Z" fill="white"/>
<path d="M14.9613 7.6311C14.234 7.6311 13.6445 8.22062 13.6445 8.94784V11.5247C13.6445 12.2519 14.234 12.8415 14.9613 12.8415C15.6885 12.8415 16.278 12.2519 16.278 11.5247V8.94784C16.2781 8.22062 15.6885 7.6311 14.9613 7.6311ZM15.3413 11.5768C15.3413 11.7863 15.1708 11.9567 14.9613 11.9567C14.7519 11.9567 14.5814 11.7863 14.5814 11.5768V8.89576C14.5814 8.68624 14.7519 8.51582 14.9613 8.51582C15.1708 8.51582 15.3413 8.6863 15.3413 8.89576V11.5768Z" fill="white"/>
</svg>
