<svg width="281" height="484" viewBox="0 0 281 484" fill="none" xmlns="http://www.w3.org/2000/svg">
<path opacity="0.13" d="M109.859 319.577C96.3124 314.603 81.8154 312.759 67.453 314.185L61.7637 278.878C74.537 275.852 86.3957 269.794 96.3371 261.215C106.278 252.636 114.01 241.79 118.878 229.592C123.391 218.413 125.26 206.342 124.34 194.323C123.419 182.303 119.733 170.661 113.571 160.305L144.879 139.79C159.856 153.844 179.639 161.634 200.177 161.563C220.715 161.492 240.452 153.567 255.345 139.411C270.238 125.254 279.16 105.939 280.283 85.4204C281.406 64.9022 274.645 44.7349 261.384 29.05C248.124 13.3651 229.369 3.34999 208.96 1.05637C188.552 -1.23726 168.036 4.36424 151.615 16.7133C135.193 29.0624 124.11 47.2243 120.636 67.4782C117.161 87.7321 121.559 108.545 132.927 125.653L102.947 145.598C95.0254 136.741 85.1975 129.8 74.2036 125.297C55.0346 117.858 33.7638 117.922 14.6328 125.477C-4.49829 133.032 -20.0839 147.522 -29.0162 166.059L-68.3853 150.319C-62.8163 134.529 -62.0075 117.451 -66.0593 101.21C-70.1111 84.9683 -78.8449 70.2786 -91.175 58.9665C-103.505 47.6545 -118.888 40.2191 -135.411 37.5844C-151.935 34.9498 -168.87 37.2321 -184.112 44.1477C-199.355 51.0633 -212.232 62.3072 -221.143 76.4819C-230.054 90.6565 -234.606 107.137 -234.234 123.874C-233.862 140.612 -228.581 156.868 -219.049 170.623C-209.517 184.378 -196.153 195.025 -180.618 201.24C-162.027 208.745 -141.375 209.406 -122.335 203.106C-103.296 196.807 -87.104 183.955 -76.6401 166.838L-35.3738 183.336C-39.0676 201.8 -36.1858 220.971 -27.2283 237.524C-18.2708 254.078 -3.80273 266.969 13.6659 273.962C22.7514 277.517 32.3747 279.502 42.1259 279.835L48.4791 317.609C37.1809 321.798 26.8759 328.291 18.2192 336.677C9.56243 345.064 2.74328 355.159 -1.80489 366.322C-8.15728 381.943 -9.74484 399.093 -6.36734 415.61C-2.98984 432.127 5.20143 447.27 17.1732 459.131C29.1451 470.992 44.3611 479.038 60.9021 482.254C77.4431 485.47 94.5681 483.713 110.117 477.204C125.666 470.695 138.942 459.726 148.271 445.679C157.6 431.633 162.563 415.14 162.536 398.279C162.508 381.418 157.49 364.946 148.116 350.94C138.741 336.933 125.429 326.02 109.859 319.577Z" fill="white" fill-opacity="0.31"/>
</svg>
