<svg width="589" height="735" viewBox="0 0 589 735" fill="none" xmlns="http://www.w3.org/2000/svg">
<path d="M519.93 509.099C502.757 505.518 484.996 505.872 467.975 510.132L454.873 468.679C469.698 462.776 482.886 453.387 493.321 441.307C503.756 429.228 511.131 414.812 514.823 399.28C518.268 385.035 518.376 370.186 515.138 355.895C511.899 341.603 505.403 328.255 496.155 316.893L530.171 286.67C550.674 300.916 575.847 306.777 600.534 303.05C625.221 299.324 647.553 286.293 662.954 266.628C678.356 246.962 685.661 222.15 683.373 197.275C681.086 172.4 669.378 149.344 650.65 132.832C631.922 116.32 607.59 107.601 582.639 108.461C557.689 109.321 534.008 119.695 516.449 137.458C498.889 155.221 488.78 179.029 488.193 204.003C487.606 228.977 496.584 253.228 513.29 271.787L480.771 301.089C469.674 291.843 456.623 285.237 442.603 281.771C418.231 276.223 392.661 280.072 370.993 292.549C349.324 305.027 333.15 325.218 325.694 349.094L275.556 337.145C279.454 317.167 277.399 296.486 269.646 277.672C261.894 258.857 248.786 242.74 231.951 231.321C215.117 219.903 195.298 213.689 174.96 213.45C154.621 213.211 134.658 218.958 117.553 229.978C100.449 240.997 86.9557 256.803 78.752 275.43C70.5482 294.057 67.9954 314.684 71.4107 334.747C74.826 354.81 84.0589 373.425 97.9618 388.277C111.865 403.129 129.824 413.564 149.609 418.285C173.298 424.013 198.252 421.147 220.033 410.195C241.814 399.243 259.008 380.916 268.558 358.475L321.111 371C319.943 393.86 326.808 416.405 340.515 434.725C354.223 453.045 373.909 465.983 396.157 471.295C407.714 473.959 419.639 474.641 431.426 473.312L445.764 517.615C432.919 524.655 421.677 534.292 412.753 545.912C403.829 557.533 397.418 570.883 393.927 585.115C389.057 605.027 390.189 625.934 397.179 645.199C404.169 664.464 416.706 681.224 433.206 693.366C449.707 705.507 469.433 712.486 489.896 713.421C510.36 714.356 530.643 709.207 548.189 698.622C565.734 688.037 579.756 672.491 588.485 653.944C597.214 635.397 600.259 614.681 597.236 594.409C594.213 574.136 585.258 555.216 571.5 540.033C557.742 524.851 539.798 514.087 519.93 509.099Z" fill="white" fill-opacity="0.03"/>
</svg>
