<svg width="359" height="951" viewBox="0 0 359 951" fill="none" xmlns="http://www.w3.org/2000/svg">
<path opacity="0.03" d="M200.465 630.22C173.333 630.99 146.727 637.885 122.638 650.389L88.0481 592.762C108.244 578.574 124.725 559.733 136.097 537.833C147.47 515.933 153.399 491.617 153.385 466.942C153.46 444.291 148.296 421.928 138.295 401.602C128.295 381.275 113.729 363.535 95.7347 349.767L136.09 292.139C172.059 306.211 212.05 306.002 247.87 291.554C283.69 277.105 312.628 249.513 328.754 214.428C344.88 179.342 346.975 139.421 334.609 102.843C322.243 66.2637 296.352 35.7961 262.241 17.6815C228.129 -0.433052 188.379 -4.82337 151.135 5.40999C113.89 15.6433 81.9691 39.7257 61.9122 72.7235C41.8554 105.721 35.1805 145.137 43.2552 182.894C51.3298 220.652 73.5426 253.895 105.343 275.812L66.9097 331.518C46.8906 321.593 24.8793 316.339 2.53394 316.151C-36.1394 316.543 -73.244 331.491 -101.381 358.015C-129.518 384.539 -146.621 420.69 -149.278 459.259H-229.027C-230.326 427.827 -240.838 397.47 -259.255 371.962C-277.673 346.453 -303.184 326.917 -332.617 315.783C-362.051 304.648 -394.109 302.406 -424.807 309.335C-455.505 316.263 -483.489 332.057 -505.281 354.754C-527.072 377.45 -541.711 406.048 -547.377 436.992C-553.042 467.936 -549.485 499.863 -537.148 528.803C-524.811 557.743 -504.237 582.421 -477.984 599.769C-451.731 617.117 -420.956 626.37 -389.486 626.378C-351.776 626.502 -315.245 613.251 -286.391 588.981C-257.537 564.711 -238.232 530.996 -231.909 493.835H-148.317C-141.876 528.622 -123.456 560.058 -96.2528 582.689C-69.0496 605.32 -34.7796 617.719 0.612244 617.734C18.9622 617.598 37.1561 614.35 54.4189 608.129L91.8914 669.598C75.0834 684.785 61.6199 703.301 52.3568 723.97C43.0936 744.639 38.2333 767.008 38.0848 789.655C37.8973 821.336 47.1 852.364 64.532 878.823C81.9641 905.282 106.845 925.989 136.035 938.33C165.226 950.672 197.419 954.095 228.554 948.169C259.689 942.243 288.371 927.233 310.982 905.032C333.593 882.831 349.12 854.434 355.605 823.422C362.09 792.411 359.242 760.174 347.421 730.779C335.599 701.383 315.334 676.145 289.18 658.249C263.027 640.353 232.157 630.6 200.465 630.22Z" fill="#3E3E3E"/>
</svg>
