<svg width="372" height="722" viewBox="0 0 372 722" fill="none" xmlns="http://www.w3.org/2000/svg">
<path d="M226.576 562.09C218.674 543.927 206.763 527.787 191.735 514.879L221.394 475.765C236.505 485.578 253.76 491.608 271.7 493.347C289.64 495.085 307.736 492.48 324.46 485.751C339.836 479.635 353.592 470.049 364.652 457.742C375.712 445.435 383.776 430.741 388.216 414.807L438.259 426.444C438.502 454.633 449.521 481.657 469.058 501.98C488.595 522.302 515.171 534.385 543.342 535.753C571.513 537.12 599.146 527.669 620.581 509.335C642.015 491.001 655.628 465.173 658.631 437.141C661.633 409.11 653.799 380.997 636.731 358.562C619.664 336.127 594.656 321.068 566.831 316.471C539.006 311.873 510.471 318.085 487.07 333.834C463.669 349.582 447.174 373.676 440.966 401.178L392.748 390.319C394.031 374.06 391.607 357.724 385.657 342.541C374.873 316.459 354.647 295.403 329.013 283.571C303.379 271.739 274.22 270.001 247.351 278.703L225.661 224.699C246.616 215.261 264.336 199.877 276.62 180.46C288.904 161.043 295.209 138.448 294.752 115.485C294.295 92.5213 287.096 70.2019 274.05 51.3005C261.004 32.3991 242.685 17.7494 221.372 9.17231C200.059 0.595178 176.691 -1.53114 154.172 3.05765C131.653 7.64643 110.977 18.748 94.7128 34.9824C78.4491 51.2168 67.3151 71.8681 62.6948 94.3695C58.0745 116.871 60.1717 140.23 68.7257 161.543C78.8976 187.113 97.8168 208.243 122.118 221.174C146.418 234.105 174.525 237.998 201.437 232.162L224.172 288.768C202.341 302.602 186.04 323.635 178.096 348.218C170.153 372.801 171.068 399.384 180.684 423.355C185.767 435.744 192.917 447.18 201.83 457.176L170.35 499.288C155.483 492.041 139.269 487.966 122.737 487.321C106.206 486.676 89.72 489.475 74.3264 495.541C52.7979 504.04 34.2667 518.72 21.0705 537.729C7.87424 556.738 0.603934 579.224 0.176612 602.352C-0.250653 625.479 6.18427 648.212 18.6697 667.682C31.155 687.152 49.1316 702.488 70.3319 711.755C91.5321 721.022 115.006 723.805 137.794 719.752C160.581 715.7 181.66 704.994 198.373 688.985C215.086 672.976 226.683 652.381 231.702 629.798C236.721 607.214 234.937 583.655 226.576 562.09Z" fill="#F8F8F7"/>
</svg>
