<svg width="495" height="662" viewBox="0 0 495 662" fill="none" xmlns="http://www.w3.org/2000/svg">
<path opacity="0.07" d="M116.461 238.855C134.398 237.394 151.772 231.896 167.283 222.774L192.207 259.706C179.332 269.806 169.081 282.856 162.32 297.751C155.558 312.647 152.485 328.95 153.36 345.283C154.105 360.28 158.308 374.901 165.643 388.005C172.977 401.109 183.244 412.341 195.64 420.823L170.942 460.385C146.633 452.332 120.162 453.874 96.9525 464.694C73.7428 475.515 55.5511 494.795 46.1044 518.585C36.6577 542.375 36.671 568.873 46.1417 592.652C55.6124 616.432 73.8235 635.691 97.0442 646.485C120.265 657.279 146.737 658.79 171.038 650.71C195.339 642.629 215.63 625.568 227.752 603.022C239.874 580.476 242.911 554.151 236.24 529.441C229.57 504.731 213.697 483.506 191.873 470.114L215.366 431.891C228.968 437.759 243.727 440.465 258.528 439.805C284.12 438.189 308.163 426.992 325.862 408.448C343.562 389.903 353.617 365.374 354.023 339.75L406.826 336.953C408.789 357.713 416.813 377.438 429.902 393.677C442.991 409.916 460.567 421.952 480.446 428.29C500.325 434.628 521.629 434.987 541.711 429.324C561.793 423.661 579.768 412.224 593.4 396.436C607.032 380.648 615.722 361.205 618.387 340.523C621.053 319.841 617.579 298.832 608.395 280.108C599.211 261.384 584.723 245.771 566.733 235.209C548.742 224.647 528.042 219.602 507.204 220.7C482.232 221.941 458.51 231.994 440.257 249.072C422.004 266.149 410.404 289.144 407.521 313.964L352.175 316.897C346.69 294.096 333.391 273.933 314.586 259.907C295.781 245.881 272.656 238.877 249.222 240.109C237.077 240.842 225.145 243.63 213.934 248.354L186.967 208.98C197.563 198.337 205.827 185.608 211.236 171.602C216.644 157.596 219.077 142.618 218.381 127.622C217.394 106.644 210.213 86.4292 197.743 69.5263C185.273 52.6234 168.073 39.7901 148.313 32.6449C128.553 25.4998 107.117 24.3631 86.7108 29.378C66.304 34.3929 47.8401 45.335 33.648 60.8239C19.4559 76.3128 10.1712 95.6548 6.96526 116.41C3.75935 137.165 6.77567 158.404 15.6338 177.447C24.4919 196.491 38.795 212.485 56.739 223.414C74.683 234.343 95.4639 239.716 116.461 238.855Z" fill="white"/>
</svg>
