<svg width="636" height="662" viewBox="0 0 636 662" fill="none" xmlns="http://www.w3.org/2000/svg">
<path opacity="0.07" d="M116.218 238.666C134.155 237.205 151.529 231.707 167.04 222.585L191.963 259.517C179.089 269.617 168.838 282.667 162.076 297.562C155.315 312.458 152.242 328.761 153.117 345.094C153.862 360.091 158.065 374.712 165.4 387.816C172.734 400.92 183 412.152 195.397 420.634L170.699 460.196C146.39 452.143 119.919 453.685 96.7094 464.505C73.4996 475.326 55.3079 494.606 45.8612 518.396C36.4145 542.186 36.4279 568.684 45.8986 592.464C55.3692 616.243 73.5803 635.502 96.801 646.296C120.022 657.09 146.494 658.601 170.795 650.521C195.096 642.44 215.386 625.379 227.509 602.833C239.631 580.287 242.668 553.962 235.997 529.252C229.327 504.542 213.453 483.317 191.63 469.925L215.122 431.703C228.725 437.57 243.483 440.276 258.285 439.616C283.877 438 307.92 426.803 325.619 408.259C343.319 389.714 353.374 365.185 353.78 339.561L406.583 336.764C408.545 357.524 416.57 377.249 429.659 393.488C442.748 409.727 460.324 421.763 480.203 428.101C500.081 434.439 521.386 434.798 541.468 429.135C561.55 423.472 579.525 412.035 593.157 396.247C606.789 380.459 615.478 361.016 618.144 340.334C620.81 319.652 617.335 298.643 608.152 279.919C598.968 261.195 584.48 245.582 566.49 235.02C548.499 224.458 527.798 219.413 506.961 220.511C481.989 221.752 458.267 231.805 440.014 248.883C421.761 265.96 410.161 288.955 407.278 313.775L351.931 316.708C346.447 293.907 333.148 273.744 314.343 259.718C295.538 245.692 272.413 238.688 248.979 239.92C236.834 240.653 224.902 243.441 213.69 248.165L186.724 208.791C197.32 198.148 205.584 185.419 210.993 171.413C216.401 157.407 218.834 142.429 218.138 127.433C217.151 106.455 209.97 86.2402 197.5 69.3373C185.03 52.4345 167.83 39.6011 148.07 32.456C128.31 25.3108 106.874 24.1741 86.4676 29.189C66.0609 34.204 47.597 45.146 33.4048 60.635C19.2127 76.1239 9.92807 95.4659 6.7221 116.221C3.51618 136.976 6.5325 158.215 15.3907 177.258C24.2488 196.302 38.5519 212.296 56.4958 223.225C74.4398 234.154 95.2208 239.527 116.218 238.666Z" fill="white"/>
</svg>
