<svg width="1920" height="2524" viewBox="0 0 1920 2524" fill="none" xmlns="http://www.w3.org/2000/svg">
<path opacity="0.13" d="M109.859 1395.58C96.3124 1390.6 81.8154 1388.76 67.453 1390.18L61.7637 1354.88C74.537 1351.85 86.3957 1345.79 96.3371 1337.22C106.278 1328.64 114.01 1317.79 118.878 1305.59C123.391 1294.41 125.26 1282.34 124.34 1270.32C123.419 1258.3 119.733 1246.66 113.571 1236.31L144.879 1215.79C159.856 1229.84 179.639 1237.63 200.177 1237.56C220.715 1237.49 240.452 1229.57 255.345 1215.41C270.238 1201.25 279.16 1181.94 280.283 1161.42C281.406 1140.9 274.645 1120.73 261.384 1105.05C248.124 1089.37 229.369 1079.35 208.96 1077.06C188.552 1074.76 168.036 1080.36 151.615 1092.71C135.193 1105.06 124.11 1123.22 120.636 1143.48C117.161 1163.73 121.559 1184.54 132.927 1201.65L102.947 1221.6C95.0254 1212.74 85.1975 1205.8 74.2036 1201.3C55.0346 1193.86 33.7638 1193.92 14.6328 1201.48C-4.49828 1209.03 -20.0839 1223.52 -29.0162 1242.06L-68.3853 1226.32C-62.8163 1210.53 -62.0075 1193.45 -66.0593 1177.21C-70.1111 1160.97 -78.8449 1146.28 -91.175 1134.97C-103.505 1123.65 -118.888 1116.22 -135.411 1113.58C-151.935 1110.95 -168.87 1113.23 -184.112 1120.15C-199.355 1127.06 -212.232 1138.31 -221.143 1152.48C-230.054 1166.66 -234.606 1183.14 -234.234 1199.87C-233.862 1216.61 -228.581 1232.87 -219.049 1246.62C-209.517 1260.38 -196.153 1271.02 -180.618 1277.24C-162.027 1284.74 -141.375 1285.41 -122.335 1279.11C-103.296 1272.81 -87.104 1259.96 -76.6401 1242.84L-35.3738 1259.34C-39.0676 1277.8 -36.1858 1296.97 -27.2283 1313.52C-18.2708 1330.08 -3.80273 1342.97 13.6659 1349.96C22.7514 1353.52 32.3747 1355.5 42.1259 1355.84L48.4791 1393.61C37.1809 1397.8 26.8759 1404.29 18.2192 1412.68C9.56243 1421.06 2.7433 1431.16 -1.80489 1442.32C-8.15727 1457.94 -9.74485 1475.09 -6.36734 1491.61C-2.98986 1508.13 5.20144 1523.27 17.1732 1535.13C29.1451 1546.99 44.3611 1555.04 60.9021 1558.25C77.4431 1561.47 94.5681 1559.71 110.117 1553.2C125.666 1546.7 138.942 1535.73 148.271 1521.68C157.6 1507.63 162.563 1491.14 162.536 1474.28C162.508 1457.42 157.49 1440.95 148.116 1426.94C138.741 1412.93 125.429 1402.02 109.859 1395.58Z" fill="white" fill-opacity="0.31"/>
<path d="M1850.93 1376.1C1833.76 1372.52 1816 1372.87 1798.98 1377.13L1785.87 1335.68C1800.7 1329.78 1813.89 1320.39 1824.32 1308.31C1834.76 1296.23 1842.13 1281.81 1845.82 1266.28C1849.27 1252.03 1849.38 1237.19 1846.14 1222.89C1842.9 1208.6 1836.4 1195.26 1827.16 1183.89L1861.17 1153.67C1881.67 1167.92 1906.85 1173.78 1931.53 1170.05C1956.22 1166.32 1978.55 1153.29 1993.95 1133.63C2009.36 1113.96 2016.66 1089.15 2014.37 1064.27C2012.09 1039.4 2000.38 1016.34 1981.65 999.832C1962.92 983.32 1938.59 974.601 1913.64 975.461C1888.69 976.321 1865.01 986.695 1847.45 1004.46C1829.89 1022.22 1819.78 1046.03 1819.19 1071C1818.61 1095.98 1827.58 1120.23 1844.29 1138.79L1811.77 1168.09C1800.67 1158.84 1787.62 1152.24 1773.6 1148.77C1749.23 1143.22 1723.66 1147.07 1701.99 1159.55C1680.32 1172.03 1664.15 1192.22 1656.69 1216.09L1606.56 1204.14C1610.45 1184.17 1608.4 1163.49 1600.65 1144.67C1592.89 1125.86 1579.79 1109.74 1562.95 1098.32C1546.12 1086.9 1526.3 1080.69 1505.96 1080.45C1485.62 1080.21 1465.66 1085.96 1448.55 1096.98C1431.45 1108 1417.96 1123.8 1409.75 1142.43C1401.55 1161.06 1399 1181.68 1402.41 1201.75C1405.83 1221.81 1415.06 1240.42 1428.96 1255.28C1442.86 1270.13 1460.82 1280.56 1480.61 1285.28C1504.3 1291.01 1529.25 1288.15 1551.03 1277.19C1572.81 1266.24 1590.01 1247.92 1599.56 1225.47L1652.11 1238C1650.94 1260.86 1657.81 1283.4 1671.52 1301.72C1685.22 1320.04 1704.91 1332.98 1727.16 1338.3C1738.71 1340.96 1750.64 1341.64 1762.43 1340.31L1776.76 1384.62C1763.92 1391.66 1752.68 1401.29 1743.75 1412.91C1734.83 1424.53 1728.42 1437.88 1724.93 1452.12C1720.06 1472.03 1721.19 1492.93 1728.18 1512.2C1735.17 1531.46 1747.71 1548.22 1764.21 1560.37C1780.71 1572.51 1800.43 1579.49 1820.9 1580.42C1841.36 1581.36 1861.64 1576.21 1879.19 1565.62C1896.73 1555.04 1910.76 1539.49 1919.48 1520.94C1928.21 1502.4 1931.26 1481.68 1928.24 1461.41C1925.21 1441.14 1916.26 1422.22 1902.5 1407.03C1888.74 1391.85 1870.8 1381.09 1850.93 1376.1Z" fill="white" fill-opacity="0.03"/>
</svg>
