<svg width="900" height="672" viewBox="0 0 900 672" fill="none" xmlns="http://www.w3.org/2000/svg">
<path d="M286.61 149.12C288.241 153.417 289.843 168.398 286.095 174.299C282.346 180.2 283.977 181.804 287.697 183.924C291.417 186.044 293.049 191.458 293.049 195.726C293.049 199.994 295.739 199.478 296.282 208.587C296.826 217.696 298.944 224.113 302.149 227.865C303.208 229.447 303.834 231.28 303.965 233.18C304.096 235.08 303.726 236.981 302.893 238.693C307.147 242.018 311.836 244.746 316.829 246.8C327.989 250.781 331.996 253.961 332.768 257.971C333.541 261.982 343.156 269.143 345.531 263.7C347.907 258.258 354.288 261.323 359.096 261.323C363.903 261.323 364.819 266.88 365.449 270.088C366.078 273.296 377.41 271.692 381.417 274.07C385.423 276.447 386.968 285.241 392.549 288.392C398.129 291.543 402.908 284.411 406.857 286.817C410.806 289.223 421.165 291.572 427.575 289.194C433.986 286.817 437.935 291.572 445.89 290.798C453.846 290.025 464.233 293.176 466.609 295.582C467.868 296.842 474.621 298.074 480.745 298.991C482.348 295.725 479.257 285.642 479.744 283.15C480.23 280.658 499.003 263.872 502.208 260.234C505.413 256.596 510.249 256.482 512.91 251.641C515.572 246.8 505.413 231.274 503.295 228.066C501.177 224.858 500.09 211.996 501.693 206.639C503.295 201.283 493.651 198.046 493.651 194.322C493.651 190.598 502.751 184.124 507.588 182.005C512.424 179.885 510.793 164.818 506.5 161.123C504.124 158.811 502.497 155.838 501.828 152.59C501.16 149.342 501.482 145.968 502.751 142.904C505.413 135.399 486.697 129.527 484.008 129.527C483.578 129.527 483.321 129.04 483.12 128.41C466.408 131.504 423.626 127.035 420.393 125.746C418.275 124.915 412.866 122.882 408.202 121.306C406.786 123.492 404.823 125.268 402.509 126.459C400.195 127.65 397.609 128.214 395.01 128.095C384.679 128.095 383.935 117.725 383.563 113.085C383.191 108.444 341.84 117.038 330.765 128.095C319.691 139.152 294.022 134.855 293.335 140.928C292.791 145.339 288.928 147.631 286.438 146.399C286.276 147.307 286.335 148.24 286.61 149.12Z" fill="#EE6932" stroke="white" stroke-miterlimit="10"/>
<path d="M381.16 493.748C380.215 488.936 395.468 466.879 399.389 466.879C402.565 466.879 403.767 445.653 402.422 434.625C395.753 429.881 388.413 426.164 380.645 423.597C380.645 423.597 348.709 422.021 343.443 419.873C338.178 417.724 332.798 426.805 328.019 423.081C326.942 422.325 325.67 421.897 324.356 421.849C323.041 421.801 321.741 422.135 320.613 422.811C319.484 423.486 318.575 424.474 317.995 425.656C317.415 426.837 317.189 428.162 317.345 429.469C318.404 434.797 328.534 438.062 328.534 445.997C328.534 453.932 348.794 465.733 348.251 470.001C347.879 472.866 360.384 481.116 367.853 492.087C372.15 494.899 376.287 497.95 380.244 501.224C380.955 498.799 381.264 496.273 381.16 493.748Z" fill="#616161" stroke="white" stroke-miterlimit="10"/>
<path d="M348.165 470.002C348.709 465.734 328.448 453.989 328.448 445.997C328.448 438.005 318.318 434.797 317.259 429.469C317.103 428.162 317.329 426.838 317.909 425.656C318.489 424.475 319.398 423.486 320.527 422.811C321.656 422.136 322.956 421.802 324.27 421.85C325.584 421.898 326.856 422.325 327.933 423.081C332.712 426.805 338.035 417.725 343.357 419.873C348.68 422.021 380.559 423.597 380.559 423.597C388.327 426.164 395.668 429.882 402.336 434.625C402.195 432.855 401.82 431.112 401.22 429.44C398.359 422.709 401.22 415.118 393.551 412.253C389.602 410.764 387.828 403.918 387.255 397.644C383.65 398.733 380.588 399.65 378.928 400.051C372.546 401.655 358.896 400.853 354.203 394.322C350.655 389.567 339.58 382.606 334.171 379.369C331.939 381.317 323.44 388.593 319.863 389.022C315.571 389.567 318.261 400.824 313.968 400.824C309.676 400.824 306.47 408.329 305.383 411.537C304.296 414.746 294.709 409.389 290.388 410.993C284.806 412.489 279.126 413.59 273.39 414.287C274.134 419.157 273.848 424.571 277.739 424.571C284.178 424.571 295.94 423.855 296.312 432.419C296.684 440.984 311.993 459.919 317.688 466.364C323.383 472.809 336.232 471.348 336.947 476.705C337.663 482.061 346.934 487.074 357.666 487.79C361.324 488.401 364.792 489.852 367.796 492.03C360.298 481.116 347.793 472.981 348.165 470.002Z" fill="#616161" stroke="white" stroke-miterlimit="10"/>
<path d="M427.376 572.808C432.727 571.748 429.494 567.452 433.243 563.699C437.008 559.682 439.927 554.947 441.828 549.778C441.864 549.638 441.929 549.508 442.017 549.395C442.106 549.282 442.217 549.188 442.343 549.119C435.074 543.648 429.98 539.752 428.378 534.137C426.775 528.523 428.378 517.237 430.982 509.073C426.832 506.208 414.098 497.3 410.092 497.3C406.085 497.3 400.019 506.122 398.502 514.487C407.86 519.5 411.551 523.08 405.055 529.525C398.559 535.971 396.871 559.173 404.34 565.246C411.809 571.319 413.526 582.433 420.422 585.756C422.368 580.084 423.828 573.553 427.376 572.808Z" fill="#616161" stroke="white" stroke-miterlimit="10"/>
<path d="M325.615 309.045C319.233 301.855 303.294 301.855 303.294 301.855C302.436 305.73 301.1 309.483 299.316 313.027C297.313 316.35 285.723 316.321 278.311 314.316C276.194 317.18 266.55 319.214 265.233 323.196C263.602 328.037 251.841 325.344 255.59 338.206C259.338 351.067 249.723 346.799 245.974 345.166C242.226 343.534 225.628 345.711 221.364 349.979C219.488 351.676 217.102 352.703 214.581 352.9C212.06 353.097 209.545 352.452 207.428 351.067C203.679 348.948 196.21 347.859 193.119 353.187C190.029 358.515 184.019 348.948 179.183 349.463C174.347 349.979 176.522 360.176 176.522 362.325C176.522 364.473 184.019 370.918 188.827 368.741C193.635 366.564 199.53 369.286 203.793 371.95C208.057 374.614 216.099 369.801 218.789 367.137C221.479 364.473 236.445 364.445 238.048 364.445C239.65 364.445 240.194 373.038 242.884 374.642C245.574 376.246 255.704 377.306 264.804 377.85C273.904 378.395 287.268 382.663 291.561 382.663C295.853 382.663 302.807 375.158 312.422 375.158C322.038 375.158 327.417 369.286 329.02 369.801C329.707 366.937 330.823 364.416 332.94 364.072C336.832 363.557 334.028 356.825 336.832 353.474C339.637 350.122 334.6 343.419 339.694 343.963C344.788 344.508 350.282 345.109 350.282 337.833C350.348 336.598 350.67 335.39 351.226 334.285C351.783 333.181 352.563 332.204 353.516 331.417C349.522 325.162 346.339 318.424 344.044 311.365C344.044 311.365 331.996 316.206 325.615 309.045Z" fill="#616161" stroke="white" stroke-miterlimit="10"/>
<path d="M480.316 329.097C478.205 328.329 476.262 327.162 474.592 325.659C467.867 324.141 461.4 322.165 459.397 320.188C455.419 316.206 439.365 313.829 437.104 313.027C434.844 312.225 419.562 327.349 414.783 327.349C410.004 327.349 389.257 329.756 389.257 335.313C389.257 340.87 363.789 341.729 356.606 335.313C355.376 334.173 354.281 332.894 353.344 331.503C352.387 332.293 351.605 333.275 351.048 334.385C350.492 335.494 350.172 336.708 350.11 337.948C350.11 345.224 344.53 344.651 339.522 344.078C334.514 343.505 339.522 350.237 336.66 353.588C333.798 356.94 336.66 363.671 332.768 364.187C330.65 364.502 329.534 366.908 328.848 369.916C330.536 370.718 334.571 378.939 334.571 378.939L334.027 379.455C339.464 382.692 350.539 389.652 354.059 394.407C358.867 400.795 372.402 401.597 378.784 400.136C385.165 398.675 412.265 389.795 412.265 389.795C415.649 391.061 419.109 392.114 422.624 392.946C423.54 393.147 426.087 393.577 429.407 394.064C431.352 392.058 437.333 390.311 443.715 383.923C451.212 376.418 462.459 349.549 465.664 347.487C468.869 345.424 477.454 340.526 481.718 337.318C485.982 334.11 485.152 330.701 480.316 329.097Z" fill="#DC4405" stroke="white" stroke-miterlimit="10"/>
<path d="M381.417 273.926C377.411 271.549 366.25 273.124 365.449 269.945C364.648 266.765 363.875 261.179 359.096 261.179C354.317 261.179 347.936 258 345.532 263.557C343.128 269.114 333.57 261.953 332.769 257.828C331.968 253.703 327.99 250.638 316.829 246.656C311.837 244.602 307.148 241.875 302.893 238.55C302.569 239.449 302.136 240.305 301.605 241.099C299.459 244.336 291.99 238.435 288.756 241.644C285.523 244.852 274.849 245.396 268.982 250.753C263.116 256.109 250.782 258.773 243.828 260.406C236.874 262.039 242.769 268.427 245.431 273.268C248.092 278.109 248.121 289.853 253.472 293.606C258.823 297.358 276.365 308.616 278.597 312.368C278.747 312.66 278.8 312.993 278.749 313.317C278.698 313.642 278.544 313.941 278.311 314.173C285.723 316.178 297.313 316.207 299.316 312.884C301.1 309.339 302.436 305.587 303.294 301.712C303.294 301.712 319.233 301.712 325.615 308.902C331.996 316.092 343.958 311.28 343.958 311.28C343.958 311.28 344.616 313.313 345.675 316.149C347.421 312.196 349.653 308.73 352.4 308.329C359.125 307.384 368.683 306.41 375.293 296.871C379.088 292.097 383.86 288.19 389.287 285.413C386.168 281.489 384.451 275.788 381.417 273.926Z" fill="#616161" stroke="white" stroke-miterlimit="10"/>
<path d="M445.948 290.684C437.992 291.457 433.986 286.702 427.633 289.08C421.28 291.457 410.892 289.08 406.915 286.702C402.937 284.325 398.158 291.457 392.606 288.278C391.374 287.546 390.303 286.571 389.458 285.413C384.031 288.19 379.26 292.097 375.465 296.871C368.74 306.467 359.182 307.441 352.572 308.329C349.71 308.73 347.592 312.196 345.847 316.149C348.05 321.878 352.057 330.93 356.864 335.198C364.047 341.615 389.516 340.784 389.516 335.198C389.516 329.612 410.263 327.235 415.042 327.235C419.821 327.235 435.073 312.053 437.363 312.912C439.652 313.772 455.677 316.092 459.655 320.074C461.658 322.05 468.24 324.027 474.851 325.545C472.148 323.528 470.332 320.539 469.785 317.209C469.785 312.912 477.855 301.684 480.488 299.535C480.705 299.317 480.871 299.052 480.975 298.762C474.851 297.845 468.097 296.613 466.838 295.353C464.291 293.061 453.903 289.882 445.948 290.684Z" fill="#DC4405" stroke="white" stroke-width="0.5" stroke-miterlimit="10"/>
<path d="M50.7222 226.548C55.0719 222.194 62.7126 224.371 67.0909 228.753C71.4693 233.136 77.9938 234.196 84.547 240.727C86.1832 242.387 87.9434 243.919 89.8125 245.31C90.4134 240.698 90.5279 231.532 92.6742 226.805C94.8204 222.079 90.5279 215.347 94.105 215.347C97.6821 215.347 107.669 215.347 107.669 208.931C107.669 202.515 110.531 204.634 112.677 201.054C114.823 197.473 106.238 190.34 104.808 188.192C103.377 186.044 111.218 185.328 116.941 176.734C119.002 173.612 118.143 167.253 116.254 160.378C115.281 162.899 113.393 164.732 110.159 162.784C104.808 159.576 96.6233 161.38 85.9206 163.5C75.218 165.62 72.0129 176.018 75.9048 180.286C79.7967 184.554 65.5742 186.731 64.4581 181.031C63.3421 175.33 52.6681 179.226 53.3835 186.76C54.0989 194.293 41.5935 197.101 42.3089 206.382C43.0243 215.663 30.8622 224.256 23.0499 228.897L19.2725 231.102C21.9622 232.548 24.8575 233.572 27.8575 234.139C34.3821 234.253 46.3724 230.93 50.7222 226.548Z" fill="#DC4405" stroke="white" stroke-miterlimit="10"/>
<path d="M91.3011 268.083C86.5508 270.747 82.201 276.447 82.8592 288.564C88.2204 288.432 93.5743 289.04 98.7701 290.369C97.6254 277.163 92.4744 273.182 91.158 270.317C90.989 269.964 90.9134 269.573 90.9384 269.181C90.9635 268.79 91.0884 268.412 91.3011 268.083Z" fill="#616161" stroke="white" stroke-width="0.5" stroke-miterlimit="10"/>
<path d="M624.115 417.581C619.107 416.865 612.668 414.717 614.843 411.852L615.473 411.05C608.776 405.636 606.887 388.134 611.294 383.838C616.732 378.395 602.538 357.627 596.013 350.008C590.1 341.303 584.794 332.201 580.131 322.766C574.408 324.628 569.428 326.691 568.455 328.323C566.792 330.36 564.737 332.041 562.411 333.266C560.086 334.491 557.538 335.236 554.92 335.456C550.627 335.456 546.335 333.308 542.758 336.86C539.181 340.412 534.173 341.873 532.084 339.724C529.995 337.576 522.783 335.427 517.775 335.427C512.767 335.427 497.114 331.131 493.537 331.131C490.433 331.207 487.336 331.475 484.265 331.933C485.066 333.48 484.437 335.342 481.947 337.203C477.683 340.412 469.098 345.224 465.893 347.372C462.688 349.521 451.585 376.304 443.944 383.809C436.304 391.314 429.493 392.402 428.949 395.038C428.405 397.673 437.534 404.691 437.534 408.959C437.404 410.07 437.517 411.196 437.866 412.259C438.214 413.322 438.79 414.296 439.552 415.114C440.315 415.931 441.246 416.573 442.281 416.994C443.316 417.415 444.431 417.606 445.547 417.553C451.442 417.553 445.032 431.474 448.752 432.534C452.472 433.594 475.508 435.198 475.508 440.583C475.508 444.737 478.055 448.26 476.939 451.153C483.407 452.213 488.157 461.036 490.704 460.406C493.251 459.775 512.825 463.958 516.459 463.27C525.049 462.821 533.66 463.051 542.214 463.958C545.426 464.123 548.634 463.568 551.604 462.334C554.575 461.1 557.233 459.218 559.384 456.825C564.363 451.812 582.277 451.096 588.001 451.812C593.724 452.528 605.17 453.96 607.259 457.541C608.376 459.374 615.101 462.182 621.883 464.473C622.684 460.95 621.654 456.309 621.883 451.783C622.255 444.307 626.519 432.878 634.016 432.162C641.514 431.445 647.58 431.446 646.522 418.956C646.522 418.527 646.522 418.183 646.522 417.81C642.716 414.545 639.167 411.795 637.937 411.795C634.817 411.852 626.232 417.782 624.115 417.581Z" fill="#DC4405" stroke="white" stroke-miterlimit="10"/>
<path d="M634.101 341.787C632.876 338.155 630.579 334.981 627.513 332.685C624.447 330.388 620.757 329.077 616.931 328.925C611.952 328.925 603.396 317.467 597.672 318.212C591.716 319.278 585.844 320.771 580.102 322.68C584.764 332.115 590.071 341.217 595.984 349.922C602.508 357.541 616.702 378.309 611.265 383.751C607.001 388.02 608.747 405.55 615.443 410.964C618.534 406.925 629.065 393.634 629.065 389.624C629.065 385.613 629.78 376.762 638.336 378.91C646.893 381.059 654.734 384.639 654.734 381.775C654.734 378.91 652.616 369.629 649.011 366.049C642.538 358.989 637.477 350.753 634.101 341.787Z" fill="#DC4405" stroke="white" stroke-miterlimit="10"/>
<path d="M587.629 451.754C581.906 451.067 564.049 451.754 559.013 456.767C556.861 459.16 554.204 461.043 551.233 462.277C548.263 463.511 545.054 464.065 541.843 463.9C533.289 462.993 524.677 462.763 516.088 463.212C512.539 463.9 493.194 459.632 490.333 460.348C487.471 461.064 483.035 452.156 476.568 451.096C476.176 452.045 475.495 452.847 474.622 453.387C469.815 456.596 469.242 465.132 474.622 469.973C480.002 474.814 486.927 485.498 482.091 485.498C477.255 485.498 473.506 491.943 474.078 495.152C474.651 498.36 472.476 505.321 474.078 506.953C475.681 508.586 486.927 519.271 487.442 522.479C487.957 525.687 492.536 526.776 492.193 529.239C501.178 528.58 520.237 527.463 524.558 529.612C530.281 532.476 550.313 533.908 550.313 533.908C556.036 533.908 561.016 531.76 559.585 528.179C558.383 525.143 565.823 523.167 571.175 522.594C570.23 519.299 569.601 516.607 571.003 516.005C573.664 514.945 589.203 512.797 595.585 516.005C597.225 516.596 598.993 516.741 600.708 516.424C602.422 516.107 604.022 515.34 605.343 514.201C604.484 511.193 603.655 508.815 602.023 508.472C598.074 507.784 592.065 491.285 597.044 490.282C602.023 489.279 608.491 472.064 616.303 469.572C617.543 469.272 618.673 468.625 619.559 467.707C620.446 466.789 621.053 465.638 621.311 464.387C614.529 462.095 607.804 459.288 606.688 457.455C604.799 453.903 593.353 452.499 587.629 451.754Z" fill="#DC4405" stroke="white" stroke-miterlimit="10"/>
<path d="M442.342 549.119C442.617 548.925 442.929 548.788 443.258 548.718H443.458C443.897 548.601 444.349 548.533 444.803 548.517H445.003C447.064 548.345 449.868 548.517 452.73 548.374H453.302L455.22 548.231H455.963C456.782 548.125 457.595 547.972 458.396 547.773C464.806 546.197 466.409 539.179 469.614 540.812C472.819 542.445 489.96 533.679 492.106 530.471C492.354 530.156 492.512 529.78 492.564 529.382C492.908 526.919 488.3 525.429 487.814 522.622C487.327 519.815 476.052 508.672 474.45 507.097C474.1 506.613 473.91 506.032 473.906 505.435C473.906 505.435 473.906 505.292 473.906 505.235C473.825 504.358 473.825 503.476 473.906 502.599C457.165 505.034 432.326 510.219 432.326 510.219C432.326 510.219 431.725 509.761 430.895 509.216C428.348 517.38 426.66 528.552 428.291 534.281C429.922 540.01 435.073 543.619 442.342 549.119Z" fill="#DC4405" stroke="white" stroke-miterlimit="10"/>
<path d="M892.368 300.709C892.368 298.59 899.866 294.808 899.322 290.54C898.778 286.272 892.368 285.699 885.414 281.947C878.46 278.194 871.507 279.799 865.068 276.59C858.629 273.382 845.294 275.502 845.294 273.382C845.294 271.262 836.709 264.273 834.591 260.52C832.473 256.768 825.491 258.888 821.198 261.58C816.906 264.273 813.157 265.333 808.893 262.669C804.629 260.005 800.881 255.708 797.132 257.284C793.383 258.859 786.429 257.828 788.032 252.471C789.634 247.115 781.078 235.284 777.329 233.737C773.58 232.191 762.334 234.797 759.673 229.441C757.011 224.084 752.175 219.787 754.321 216.063C756.468 212.34 753.778 202.113 751.116 197.845C748.455 193.577 735.062 194.093 731.314 195.697C727.565 197.301 718.98 194.093 715.26 196.241C711.539 198.389 709.365 201.97 704.013 201.97C702.758 202.164 701.474 201.997 700.309 201.49C699.144 200.983 698.146 200.156 697.431 199.106C692.441 200.898 687.216 201.95 681.921 202.228C681.921 202.228 667.613 213.686 667.613 217.954C667.613 222.222 666.926 229.412 663.349 225.803C659.772 222.193 644.805 222.222 641.228 224.37C637.651 226.519 631.957 215.777 625.546 219.386C619.136 222.996 610.551 214.373 609.836 217.954C609.12 221.535 599.849 218.67 593.41 215.806C586.971 212.941 575.582 217.238 571.318 212.225C567.054 207.212 539.21 207.241 529.938 207.241C520.666 207.241 518.491 212.225 514.228 216.522C509.964 220.818 505.872 219.587 501.321 219.386C501.472 222.222 502.161 225.002 503.353 227.579C505.471 230.787 515.658 246.313 512.968 251.154C510.279 255.995 505.471 255.966 502.266 259.747C499.061 263.528 480.317 280.114 479.802 282.663C479.287 285.212 483.007 297.129 480.317 299.277C477.627 301.426 469.614 312.654 469.614 316.951C469.614 321.248 475.509 327.12 480.317 328.724C481.946 329.148 483.356 330.171 484.266 331.589C487.337 331.131 490.434 330.863 493.538 330.787C497.115 330.787 512.825 335.083 517.776 335.083C522.727 335.083 529.938 337.203 532.084 339.38C534.231 341.557 539.21 340.068 542.758 336.516C546.307 332.964 550.628 335.112 554.921 335.112C557.539 334.892 560.087 334.147 562.412 332.922C564.737 331.697 566.793 330.016 568.456 327.979C570.602 324.399 592.008 318.67 597.702 317.954C603.397 317.238 612.011 328.667 616.961 328.667C620.788 328.819 624.477 330.13 627.543 332.427C630.609 334.723 632.906 337.897 634.131 341.529C637.525 350.499 642.605 358.736 649.098 365.791C652.675 369.371 654.821 378.652 654.821 381.517C654.821 384.381 647.009 380.801 638.424 378.652C629.839 376.504 629.152 385.098 629.152 389.366C629.152 393.634 617.019 408.644 614.844 411.508C612.669 414.373 619.108 416.521 624.116 417.237C626.233 417.552 634.818 411.508 637.651 411.508C638.825 411.508 642.373 414.373 646.236 417.524C645.406 406.352 647.724 406.982 657.683 399.391C667.642 391.8 669.13 376.905 678.373 375.1C687.616 373.296 691.565 369.028 705.129 371.147C718.694 373.267 698.376 381.861 707.619 386.874C713.714 390.168 744.914 389.484 754.5 390C761.512 388.842 753.5 393.5 764 388.678C770.427 389.053 778.5 388 778.5 388C784.768 382.271 793.555 376.218 801.453 375.444C812.149 374.223 822.54 371.089 832.13 366.192C838.455 363.637 845.037 361.774 851.761 360.635C850.588 355.593 849.1 349.664 852.305 349.177C856.054 348.661 867.271 336.315 871.02 336.315C874.769 336.315 890.823 339.523 890.823 336.859C890.823 334.195 896.174 325.058 895.087 322.394C893.999 319.73 888.677 315.977 889.764 313.285C890.851 310.592 898.349 310.621 898.349 307.384C898.349 304.147 892.368 303.001 892.368 300.709Z" fill="#DC4405" stroke="white" stroke-miterlimit="10"/>
<path d="M496.771 59.519C503.295 59.519 518.605 62.8132 527.333 59.519C536.061 56.2248 535.918 66.1073 541.499 64.9615C547.079 63.8157 557.839 71.5499 564.392 77.0211C568.246 79.9719 572.333 82.6063 576.611 84.8984C577.796 82.8526 579.394 81.0769 581.304 79.685C587.028 75.3883 592.751 77.5367 597.702 77.5367C602.652 77.5367 603.425 71.8077 607.002 68.9432C609.245 67.3861 611.806 66.3489 614.5 65.9068C612.582 61.9538 612.468 54.2483 609.291 51.0687C605.543 47.3162 600.191 40.8998 601.822 37.1473C602.795 34.905 603.058 32.4186 602.577 30.0222C602.096 27.6257 600.894 25.4339 599.132 23.7414C597.344 22.0055 595.948 19.9052 595.04 17.5827C586.455 16.4656 574.637 15.2052 572.147 16.0932C567.854 17.5254 550.742 3.94771 547.88 1.77069C546.02 0.367082 533.314 1.11185 521.896 2.17171C515.314 9.47619 520.036 14.8328 519.693 26.0617C519.349 37.2905 506.844 35.3426 500.09 35.3426C493.337 35.3426 482.233 14.976 478.685 10.3356C475.137 5.69507 463.661 16.0646 455.477 21.0488C447.293 26.033 451.556 35.6864 445.862 40.3269C440.167 44.9673 436.59 52.8447 442.256 63.2428C442.514 63.6725 442.657 64.1022 442.886 64.5319C450.011 63.959 457.623 62.6413 462.002 59.519C469.499 54.0478 490.332 59.519 496.771 59.519Z" fill="#DC4405" stroke="white" stroke-miterlimit="10"/>
<path d="M456.249 98.7626C458.939 102.544 467.496 105.752 470.701 104.148C473.906 102.544 484.065 107.872 484.065 112.168C484.065 116.465 481.403 129.355 484.065 129.355C486.726 129.355 501.922 134.139 502.98 140.584C508.899 140.567 514.81 140.988 520.666 141.845C526.389 143.277 529.937 139.696 532.77 136.116C535.603 132.535 545.619 131.131 548.481 131.131C551.343 131.131 551.343 123.283 552.029 119.673C552.716 116.064 559.899 109.676 564.163 108.215C568.427 106.755 567.74 101.799 572.032 101.799C576.325 101.799 575.581 96.0699 574.894 92.4893C574.535 89.8217 575.155 87.1143 576.64 84.8698C572.361 82.5776 568.275 79.9433 564.42 76.9924C557.867 71.5212 546.964 63.873 541.527 64.9329C536.09 65.9927 536.061 56.3394 527.362 59.4904C518.662 62.6413 503.324 59.4904 496.799 59.4904C490.275 59.4904 469.528 54.0192 461.916 59.4904C457.537 62.6127 449.925 63.9303 442.8 64.5032C445.052 68.6133 446.029 73.3023 445.606 77.9709C445.183 82.6396 443.379 87.076 440.424 90.7133C436.533 95.1247 438.793 95.6976 441.626 97.4163C447.407 96.9007 454.103 95.7549 456.249 98.7626Z" fill="#616161" stroke="white" stroke-miterlimit="10"/>
<path d="M188.712 368.885C183.904 371.033 176.407 364.588 176.407 362.468C175.897 359.098 175.897 355.67 176.407 352.299C171.933 349.901 167.272 347.87 162.471 346.226C155.345 344.078 151.797 344.078 146.073 346.914C142.439 348.747 132.394 348.232 125.612 347.63C125.011 349.778 124.038 351.211 122.35 351.211C119.522 351.491 116.841 352.608 114.65 354.419C112.458 356.23 110.855 358.653 110.045 361.38C108.986 366.736 97.7396 371.033 94.5059 380.658C91.2722 390.282 92.932 394.608 97.7396 388.707C102.547 382.806 108.442 384.954 108.442 389.767C108.442 394.579 114.852 395.123 112.706 401.569C112.706 401.712 112.706 401.798 112.706 401.941C120.032 401.311 130.191 400.48 133.282 400.48C138.289 400.48 143.269 384.783 145.415 383.293C147.561 381.803 153.285 394.751 158.979 399.735C164.674 404.719 165.418 395.438 165.418 391.142C165.418 386.845 170.397 385.413 174.003 386.158C177.609 386.902 185.45 388.306 185.45 383.293C185.45 378.28 189.742 380.429 192.575 380.429C195.408 380.429 196.152 374.7 196.152 374.7L200.817 370.346C199.031 369.225 197.02 368.512 194.928 368.26C192.835 368.007 190.713 368.221 188.712 368.885Z" fill="#616161" stroke="white" stroke-width="0.5" stroke-miterlimit="10"/>
<path d="M116.827 176.963C111.104 185.557 103.291 186.244 104.694 188.421C106.096 190.598 114.709 197.731 112.563 201.283C110.417 204.835 107.555 202.715 107.555 209.16C107.555 215.605 97.5393 215.577 93.9909 215.577C90.4424 215.577 94.7063 222.022 92.5601 227.035C90.4138 232.047 90.4138 242.016 89.6984 246.313C88.983 250.609 96.8525 257.771 96.1371 261.323C95.4217 264.875 89.6984 267.739 91.1578 270.575C92.6173 273.411 97.6252 277.392 98.7699 290.626C100.8 291.045 102.668 292.04 104.15 293.491C105.962 295.876 108.311 297.8 111.006 299.104C113.702 300.408 116.667 301.056 119.66 300.996C126.614 300.996 129.304 305.837 132.509 305.293C135.714 304.748 144.299 307.441 137.345 313.313C130.391 319.185 129.304 326.175 127.701 333.135C126.671 337.661 126.728 343.906 125.612 347.773C132.394 348.375 142.439 348.89 146.073 347.057C151.797 344.192 155.345 344.192 162.471 346.369C167.272 348.013 171.933 350.044 176.407 352.442C176.865 351.01 177.609 349.921 179.068 349.75C183.904 349.234 189.771 358.859 193.005 353.473C196.238 348.088 203.679 349.234 207.313 351.354C209.43 352.739 211.945 353.383 214.466 353.186C216.988 352.989 219.373 351.962 221.249 350.265C225.513 345.997 242.111 343.849 245.86 345.453C249.608 347.057 259.223 351.354 255.475 338.492C251.726 325.631 263.487 328.323 265.119 323.482C266.75 318.641 280.629 316.55 278.483 312.798C276.336 309.045 258.708 297.788 253.357 294.035C248.006 290.283 248.006 278.481 245.316 273.697C242.626 268.913 236.731 262.44 243.713 260.836C250.696 259.231 262.972 256.539 268.867 251.182C274.762 245.826 285.436 245.281 288.641 242.073C291.846 238.865 299.344 244.766 301.49 241.529C303.637 238.292 305.239 231.904 302.034 228.152C298.829 224.399 296.683 217.983 296.168 208.874C295.652 199.764 292.934 200.28 292.934 196.012C292.934 191.744 291.331 186.387 287.583 184.21C283.834 182.033 282.231 180.486 285.98 174.586C289.729 168.685 288.126 153.703 286.495 149.407C286.253 148.467 286.253 147.482 286.495 146.542C285.955 146.259 285.489 145.852 285.136 145.354C284.782 144.856 284.552 144.282 284.463 143.678C283.376 137.949 279.484 135.8 270.155 135.8C260.826 135.8 275.878 126.519 272.273 121.879C268.667 117.238 259.424 130.472 250.896 127.608C242.368 124.743 231.265 137.634 223.767 143.334C216.27 149.034 205.567 142.274 211.291 134.053C217.014 125.832 211.291 126.548 202.706 129.785C194.121 133.022 183.819 129.069 184.877 121.191C185.059 119.233 184.564 117.271 183.475 115.634C180.536 116.242 177.51 116.31 174.547 115.835C167.306 114.293 159.914 113.573 152.512 113.686C155.374 117.84 158.436 121.907 156.69 125.144C153.485 131.246 158.493 136.946 163.1 145.855C167.707 154.763 153.142 149.808 152.769 155.508C152.397 161.208 139.234 155.164 134.941 153.016C130.649 150.867 116.369 152.3 116.741 155.88C116.862 157.6 116.628 159.325 116.054 160.951C118.029 167.338 118.887 173.698 116.827 176.963Z" fill="#616161" stroke="white" stroke-miterlimit="10"/>
<path d="M253.758 408.987C259.481 406.667 266.006 405.751 269.154 407.011C272.302 408.271 272.874 411.078 273.36 414.229C279.097 413.532 284.777 412.431 290.359 410.935C294.68 409.331 304.295 414.688 305.354 411.48C306.413 408.271 309.646 400.766 313.939 400.766C318.231 400.766 315.541 389.509 319.834 388.965C324.126 388.42 334.8 378.796 334.8 378.796C334.8 378.796 330.536 370.202 329.077 369.686C327.618 369.171 322.123 375.043 312.479 375.043C302.836 375.043 295.91 382.548 291.618 382.548C287.325 382.548 273.961 378.28 264.861 377.736C261.656 377.564 258.308 377.277 255.189 376.962C253.899 387.585 253.421 398.292 253.758 408.987Z" fill="#616161" stroke="white" stroke-miterlimit="10"/>
<path d="M571.489 522.622C566.138 523.195 558.697 525.172 559.899 528.208C561.33 531.76 556.322 533.937 550.627 533.937C550.627 533.937 530.596 532.505 524.872 529.64C520.551 527.492 501.493 528.609 492.507 529.268C492.455 529.665 492.296 530.041 492.049 530.356C489.903 533.565 472.79 542.301 469.556 540.697C466.323 539.093 464.749 546.083 458.339 547.658C451.928 549.233 442.285 547.142 441.77 549.806C439.869 554.976 436.95 559.71 433.185 563.728C429.436 567.48 432.669 571.777 427.318 572.837C423.77 573.582 422.31 580.113 420.364 585.87C420.698 586.095 421.053 586.287 421.423 586.443C425.53 588.006 429.01 590.877 431.327 594.614C433.643 598.352 434.668 602.747 434.243 607.125C433.185 616.062 445.69 619.299 451.413 612.854C457.137 606.409 473.162 616.435 473.162 620.703C473.162 624.971 456.765 616.062 447.407 622.851C438.049 629.64 454.561 636.056 452.444 643.218C450.326 650.379 456.707 660.405 464.92 660.004C473.133 659.603 482.377 673.209 487.385 670.688C492.392 668.167 481.318 649.29 483.092 646.426C484.866 643.561 494.882 651.439 499.861 645.71C504.841 639.981 496.313 635.713 488.815 636.056C481.318 636.4 488.472 626.059 497.4 631.416C506.329 636.773 510.593 630.012 514.885 629.268C519.178 628.523 520.236 613.226 507.016 609.646C493.795 606.065 495.569 619.299 486.984 610.333C478.399 601.367 494.853 604.977 494.853 597.5C494.853 590.024 481.633 579.282 475.222 570.345C468.812 561.408 484.151 557.139 487.699 563.585C491.248 570.03 500.892 568.941 506.958 566.449C513.025 563.957 500.548 552.528 511.594 548.26C522.64 543.991 522.669 551.468 526.246 552.9C529.823 554.332 533.028 543.963 544.418 543.963C550.37 543.963 555.635 547.887 560.729 551.697C563.82 548.288 566.452 546.312 566.452 543.419C566.452 539.666 573.406 538.062 573.406 532.161C573.158 528.915 572.514 525.712 571.489 522.622Z" fill="#616161" stroke="white" stroke-miterlimit="10"/>
<path d="M295.195 627.119C280.543 630.327 274.505 631.387 265.949 627.119C257.392 622.851 243.513 631.015 245.602 636.744C247.033 640.668 252.756 645.681 270.584 650.321C288.413 654.962 290.616 667.107 298.056 667.508C305.497 667.909 306.241 660.72 304.467 651.095C302.692 641.47 313.395 630.385 314.454 628.58C315.513 626.775 309.818 623.825 295.195 627.119ZM331.939 534.596C322.667 528.867 328.734 519.586 314.11 520.273C299.487 520.961 282.003 502.771 276.651 481.688C271.3 460.606 248.492 459.575 242.769 447.057C237.046 434.539 248.12 433.135 243.141 422.794C240.279 417.065 246.489 411.938 253.758 409.045C253.364 398.353 253.784 387.647 255.017 377.02C250.834 376.843 246.702 376.022 242.769 374.585C240.079 372.981 239.535 364.387 237.933 364.387C236.33 364.387 221.364 364.387 218.674 367.08C215.984 369.772 207.971 374.585 203.679 371.892C202.763 371.348 201.733 370.746 200.817 370.231L196.038 374.613C196.038 374.613 195.294 380.342 192.461 380.342C189.628 380.342 185.335 378.223 185.335 383.207C185.335 388.191 177.466 386.788 173.889 386.071C170.312 385.355 165.304 386.788 165.304 391.056C165.304 395.324 164.56 404.662 158.865 399.649C153.17 394.636 147.418 381.775 145.301 383.207C143.183 384.639 138.175 400.394 133.167 400.394C130.077 400.394 119.918 401.225 112.592 401.855C110.675 408.014 112.592 411.68 115.454 413.313C118.315 414.946 113.851 421.362 110.617 422.966C107.384 424.57 102.032 422.966 105.81 428.838C109.587 434.711 116.512 435.255 112.764 441.156C111.938 442.21 111.418 443.47 111.26 444.799C111.102 446.129 111.313 447.476 111.868 448.694C112.423 449.912 113.302 450.954 114.409 451.706C115.516 452.458 116.808 452.891 118.143 452.958C123.466 453.502 130.964 452.413 129.361 456.71C128.087 459.308 127.126 462.049 126.5 464.874C130.561 464.145 134.533 462.983 138.347 461.408C145.844 457.512 142.639 450.695 155.116 447.085C167.593 443.476 184.019 453.874 188.998 461.408C193.978 468.941 195.408 469.629 196.496 475.73C197.583 481.832 202.219 493.948 219.389 505.005C236.559 516.062 243.341 528.58 252.241 533.221C261.141 537.861 270.069 536.801 275.421 543.218C280.772 549.634 287.898 553.215 296.483 557.139C305.068 561.064 305.382 570.345 313.653 571.462C321.923 572.579 316.514 579.683 321.493 585.784C326.473 591.886 327.904 604.719 322.581 611.88C317.258 619.041 320.063 631.158 323.64 631.158C327.217 631.158 334.686 618.296 335.773 611.106C336.861 603.917 343.958 604.318 349.681 596.784C355.404 589.25 341.096 587.503 338.635 577.85C336.174 568.196 349.338 559.631 361.814 567.48C374.291 575.329 379.299 580.714 379.986 568.569C380.673 556.423 341.21 540.325 331.939 534.624V534.596Z" fill="#616161" stroke="white" stroke-miterlimit="10"/>
<path d="M390.402 475.816C385.451 482.519 380.615 490.969 381.159 493.748C381.235 496.278 380.897 498.804 380.157 501.224C385.519 505.923 391.262 510.168 397.327 513.914L398.615 514.573C400.017 506.638 405.483 498.446 409.461 497.386C403.795 490.711 395.639 481.087 390.402 475.816Z" fill="#616161" stroke="white" stroke-miterlimit="10"/>
<path d="M474.994 469.973C469.614 465.132 470.186 456.596 474.994 453.387C479.801 450.179 475.509 445.854 475.509 440.526C475.509 435.198 452.616 433.565 448.752 432.477C444.889 431.388 451.442 417.495 445.547 417.495C444.431 417.549 443.317 417.358 442.281 416.937C441.246 416.516 440.315 415.874 439.553 415.056C438.79 414.238 438.215 413.264 437.866 412.202C437.518 411.139 437.404 410.013 437.534 408.902C437.534 404.634 428.434 397.644 428.949 394.98C429.082 394.565 429.318 394.19 429.636 393.892C426.317 393.405 423.77 392.975 422.854 392.775C419.339 391.942 415.879 390.89 412.495 389.624C412.495 389.624 397.643 394.407 387.341 397.558C388.028 403.832 389.687 410.678 393.637 412.167C401.306 415.032 398.444 422.709 401.306 429.354C404.167 436 403.223 466.793 399.388 466.793C397.757 466.793 394.037 470.775 390.403 475.73C395.64 481.001 403.795 490.626 409.347 497.415C409.586 497.318 409.836 497.251 410.091 497.214C414.87 497.214 432.412 509.99 432.412 509.99C432.412 509.99 457.251 504.805 473.992 502.37C474.379 499.956 474.533 497.51 474.45 495.066C473.906 491.858 477.684 485.412 482.463 485.412C487.242 485.412 480.317 474.871 474.994 469.973Z" fill="#616161" stroke="white" stroke-miterlimit="10"/>
<path d="M196.582 368.627C196.613 366.59 195.896 364.613 194.567 363.071C193.237 361.529 191.388 360.529 189.37 360.263C181.844 358.888 182.331 356.281 181.615 353.875C180.899 352.331 180.047 350.855 179.068 349.463C179.068 349.463 174.948 349.864 175.978 356.796C176.321 359.031 176.493 360.549 176.579 361.552C176.716 363.194 177.461 364.727 178.668 365.848C179.605 366.9 180.757 367.739 182.045 368.307C183.334 368.875 184.729 369.16 186.137 369.142C189.547 368.261 193.101 368.086 196.582 368.627Z" fill="#616161" stroke="white" stroke-miterlimit="10"/>
<path d="M123.038 466.106C118.832 465.639 114.578 466.292 110.704 467.996C107.842 469.314 101.375 467.996 100.43 473.725C97.3684 491.256 109.187 476.762 109.187 476.762L120.462 467.28L123.123 466.191L123.038 466.106Z" fill="#616161" stroke="white" stroke-miterlimit="10"/>
<path d="M706.159 145.912C701.867 144.852 699.205 135.199 692.223 132.535C685.241 129.871 686.9 121.277 681.005 117.525C675.11 113.772 678.859 106.267 678.315 100.338C677.772 94.4084 679.403 85.3566 676.198 83.7525C672.993 82.1483 659.6 74.6433 653.734 77.336C647.867 80.0286 643.546 82.1483 640.856 77.336C638.166 72.5236 634.446 69.831 628.58 71.4351C626.298 72.0199 623.902 71.9801 621.642 71.3199C619.381 70.6598 617.34 69.4035 615.731 67.6826C615.212 67.1741 614.794 66.5714 614.5 65.9066C611.807 66.3487 609.245 67.3859 607.003 68.943C603.425 71.8075 602.71 77.5365 597.702 77.5365C592.694 77.5365 587.028 75.3881 581.305 79.6848C575.582 83.9816 574.151 88.9658 574.866 92.5178C575.582 96.0698 576.326 101.827 572.004 101.827C567.683 101.827 568.427 106.84 564.135 108.244C559.842 109.647 552.688 116.093 552.001 119.702C551.315 123.311 551.315 131.16 548.453 131.16C545.591 131.16 535.604 132.592 532.742 136.144C529.881 139.696 526.361 143.305 520.638 141.873C514.782 141.017 508.87 140.595 502.952 140.613C503.066 141.332 503.007 142.069 502.781 142.761C501.511 145.824 501.189 149.199 501.858 152.447C502.526 155.695 504.154 158.668 506.53 160.979C510.822 164.703 512.425 179.713 507.617 181.861C502.809 184.01 493.681 190.455 493.681 194.179C493.681 197.903 503.324 201.14 501.722 206.496C500.832 210.851 500.687 215.326 501.293 219.73C505.843 219.931 510.336 220.761 514.199 216.866C518.062 212.97 520.637 207.585 529.909 207.585C539.181 207.585 567.111 207.585 571.289 212.569C575.467 217.553 587 213.285 593.381 216.149C599.763 219.014 609.092 221.878 609.807 218.298C610.522 214.717 619.079 223.282 625.518 219.73C631.956 216.178 637.622 226.863 641.2 224.714C644.777 222.566 659.743 222.566 663.32 226.147C666.897 229.727 667.584 222.566 667.584 218.298C667.584 214.03 681.892 202.572 681.892 202.572C687.187 202.294 692.412 201.242 697.403 199.45C695.618 196.327 694.397 192.914 693.797 189.366C691.164 177.565 686.872 170.604 690.077 166.852C693.282 163.099 702.382 171.693 707.247 169.544C712.112 167.396 720.639 163.099 719.552 158.287C718.465 153.474 710.452 146.972 706.159 145.912Z" fill="#DC4405" stroke="white" stroke-miterlimit="10"/>
<path d="M4.90773 241.67C5.49464 245.277 11.3638 254.154 13.7115 250.548C15.7657 246.941 21.3414 255.264 26.3302 257.761C31.319 260.258 41.0031 263.587 41.59 266.639C42.1769 269.691 43.6442 276.626 48.633 274.407C53.6218 272.187 59.491 264.974 59.491 269.136C59.491 273.297 61.2517 281.065 66.534 279.956C72.1097 278.846 73.577 288.833 79.1527 287.724C80.033 287.446 81.5003 287.446 82.9676 287.446C82.3807 275.794 86.7826 270.245 91.4779 267.471C92.6517 265.529 95.8798 263.31 96.4667 260.813C97.3471 257.484 89.1302 250.548 90.0106 246.386C90.0106 246.109 90.0106 245.831 90.0106 245.554C88.2499 244.167 86.1957 242.78 84.7284 241.115C78.2723 234.734 71.5228 233.624 67.1209 229.463C62.719 225.302 54.7956 223.082 50.3938 227.244C45.9919 231.682 33.6666 234.734 26.9171 234.734C25.4498 234.734 22.2218 233.624 18.1133 231.682C12.8311 234.734 7.25539 237.509 1.67969 238.341C2.56006 240.005 4.32081 239.173 4.90773 241.67Z" fill="#DC4405" stroke="white" stroke-miterlimit="10"/>
<path d="M760.814 391.08C760.869 390.626 760.944 389.593 760.814 389.098L760.001 386.496L761.79 386L764.556 387.115C765.37 387.28 767.159 387.66 767.81 387.859C768.461 388.057 769.925 388.767 770.576 389.098C771.281 389.387 772.918 390.015 773.829 390.213C774.74 390.411 775.836 390.874 776.27 391.08C776.92 391.287 778.32 391.675 778.71 391.576C779.1 391.477 781.042 391.204 781.964 391.08L783.428 393.063L785.868 395.417C786.844 396.326 789.122 398.044 790.424 397.647C792.05 397.152 791.562 398.143 792.539 399.134C794.003 399.134 794.328 399.506 794.328 400.002V401.117C794.328 401.282 794.458 401.712 794.979 402.108C795.499 402.505 796.28 402.273 796.606 402.108C797.148 402.48 798.395 403.323 799.046 403.719C799.697 404.116 800.185 404.38 800.348 404.462C800.619 405.041 801.161 406.321 801.161 406.817C801.161 407.436 804.089 408.304 804.089 409.047C804.089 409.642 803.005 410.204 802.462 410.41C802.462 410.947 802.593 412.219 803.113 413.012C803.634 413.805 804.306 414.169 804.577 414.251C804.957 414.499 806.172 414.995 807.994 414.995C809.816 414.995 809.838 415.49 809.621 415.738C810.488 416.069 812.386 416.804 813.037 417.101C813.851 417.473 814.501 416.73 815.478 416.73C816.454 416.73 817.104 415.738 817.918 415.738C818.731 415.738 822.961 414.871 824.263 414.995C825.564 415.119 826.378 416.234 826.866 416.73C827.256 417.126 826.703 418.877 826.378 419.703L825.076 423.545C824.263 423.255 822.538 422.652 822.148 422.553C821.66 422.429 821.172 422.058 819.707 421.81C818.243 421.562 817.592 421.438 817.104 421.438C816.616 421.438 815.803 421.562 815.478 421.686C815.152 421.81 813.688 423.173 813.363 423.545C813.037 423.916 812.549 425.031 812.224 425.403C811.898 425.775 810.272 426.394 809.621 426.642C808.97 426.89 808.97 427.386 807.994 427.881L806.53 428.625C806.259 428.997 805.716 429.79 805.716 429.988C805.716 430.186 804.957 431.144 804.577 431.599L803.113 431.723C803.005 431.64 802.723 431.45 802.462 431.351C802.137 431.227 801.486 431.103 801.161 430.855C800.901 430.657 800.185 430.938 799.859 431.103H798.233C797.907 431.103 796.443 431.475 795.955 431.723C795.467 431.97 794.816 431.723 794.328 431.723C793.84 431.723 793.189 431.97 792.539 432.218C791.888 432.466 791.074 432.838 790.424 433.086C789.773 433.333 788.471 433.705 787.983 433.953C787.495 434.201 786.519 434.325 785.868 434.572C785.218 434.82 785.218 435.44 784.729 435.812C784.241 436.183 783.591 436.927 783.428 437.175C783.265 437.422 782.615 438.166 782.452 438.414C782.289 438.661 782.126 439.033 781.964 439.405C781.801 439.777 780.825 440.148 780.5 440.272C780.239 440.371 780.066 440.644 780.012 440.768C779.523 440.892 778.482 441.189 778.222 441.387C777.962 441.586 777.571 441.718 777.409 441.759L776.27 442.503C776.053 442.709 775.554 443.172 775.294 443.37C774.968 443.618 774.805 443.618 774.643 443.866C774.48 444.113 773.016 444.361 772.691 444.361C772.365 444.361 771.064 444.609 770.576 444.609H768.949C768.461 444.609 767.647 444.485 766.996 444.609C766.346 444.733 765.695 444.609 765.37 444.857C765.044 445.105 764.068 444.981 763.743 444.857C763.482 444.758 763.309 444.32 763.255 444.113C762.929 444.155 762.213 444.113 761.953 443.618C761.953 443.42 761.411 442.792 761.14 442.503L760.001 441.387C759.35 441.429 757.853 441.487 757.072 441.387C756.096 441.264 756.096 441.14 755.608 440.768C755.12 440.396 754.958 440.272 754.795 439.901C754.632 439.529 754.144 438.785 754.469 438.661C754.795 438.538 756.422 437.918 756.747 437.918C757.072 437.918 757.723 437.175 758.049 436.679C758.374 436.183 758.049 435.564 758.049 435.068C758.049 434.572 758.049 434.077 757.723 433.705C757.398 433.333 758.699 431.846 759.025 431.723C759.35 431.599 760.001 430.607 760.001 429.74C760.001 428.873 760.326 428.625 760.001 427.757C759.675 426.89 760.164 426.147 760.001 425.775C759.838 425.403 759.513 424.04 759.35 423.545C759.22 423.148 758.428 422.058 758.049 421.562V420.571L759.025 418.712L758.049 417.721C757.615 417.721 756.617 417.919 756.096 418.712C755.446 419.703 754.795 419.208 753.005 419.703C751.216 420.199 751.378 419.703 749.263 420.571C747.148 421.438 748.287 420.323 746.335 419.703C744.383 419.084 742.919 418.96 742.919 417.721C742.919 416.482 743.895 415.738 745.196 414.251C746.498 412.764 743.895 413.012 742.919 413.012C741.942 413.012 741.292 414.251 740.316 414.251H737.224C736.248 414.251 735.435 414.995 732.995 415.738C730.554 416.482 729.415 415.367 726.812 414.251C724.73 413.359 727.138 413.054 728.602 413.012C728.71 412.434 729.025 411.104 729.415 410.41C729.806 409.716 731.964 409.047 732.995 408.799C733.537 408.882 734.784 408.998 735.435 408.799C736.086 408.601 736.899 408.138 737.224 407.932C737.387 407.602 737.81 406.792 738.201 406.197C738.689 405.454 740.153 404.834 741.292 403.719C742.43 402.604 744.22 402.48 745.196 402.108C746.172 401.736 748.45 401.365 749.263 401.117C750.077 400.869 753.493 399.506 754.144 399.134C754.795 398.763 757.398 397.647 758.049 397.647H761.79L763.098 395.258C762.376 396.176 761.607 394.674 760.814 394.674C759.903 394.674 759.784 393.6 759.838 393.063L760.814 391.08Z" fill="#DC4405"/>
</svg>
