<svg width="32" height="9" viewBox="0 0 32 9" fill="none" xmlns="http://www.w3.org/2000/svg">
<path d="M6.66553 8H5.75244L5.75244 0.958496H3.20117L3.03467 2.24756C2.81624 3.96273 2.62288 5.21777 2.45459 6.01269C2.28988 6.80404 2.07145 7.35547 1.79932 7.66699C1.52718 7.97851 1.16553 8.1307 0.714355 8.12353C0.449381 8.12353 0.211263 8.07878 0 7.98926L0 7.22119C0.193359 7.31429 0.395671 7.36084 0.606934 7.36084C0.796712 7.36084 0.961426 7.28385 1.10107 7.12988C1.2443 6.97233 1.36963 6.70199 1.47705 6.31885C1.58805 5.93213 1.72591 5.20166 1.89062 4.12744C2.05892 3.04964 2.24333 1.72298 2.44385 0.147461H6.66553L6.66553 8ZM9.52832 2.11328V5.84619L9.49072 6.82373L9.47461 7.12988L12.6597 2.11328H13.7715V8H12.939V4.40137L12.9551 3.69238L12.9819 2.99414L9.80225 8H8.69043V2.11328H9.52832ZM19.6313 2.87598H17.7192V8H16.8276V2.87598H14.937V2.11328H19.6313V2.87598ZM25.5718 3.59033C25.5718 3.97347 25.4608 4.2653 25.2388 4.46582C25.0203 4.66276 24.7124 4.79525 24.3149 4.86328V4.91162C24.8162 4.97965 25.1815 5.12646 25.4106 5.35205C25.6434 5.57764 25.7598 5.88916 25.7598 6.28662C25.7598 6.83447 25.5575 7.257 25.1528 7.5542C24.7518 7.8514 24.1645 8 23.3911 8H20.7969V2.11328H23.3804C24.8413 2.11328 25.5718 2.60563 25.5718 3.59033ZM24.8682 6.22754C24.8682 5.90885 24.7464 5.6779 24.5029 5.53467C24.263 5.38786 23.8638 5.31445 23.3052 5.31445H21.6885V7.25342H23.3267C24.3543 7.25342 24.8682 6.91146 24.8682 6.22754ZM24.7017 3.67627C24.7017 3.38981 24.5907 3.1875 24.3687 3.06934C24.1502 2.94759 23.8172 2.88672 23.3696 2.88672H21.6885V4.54639H23.1978C23.7492 4.54639 24.1377 4.47835 24.3633 4.34228C24.5889 4.20622 24.7017 3.98421 24.7017 3.67627ZM30.6797 8L30.5024 7.16211H30.4595C30.1659 7.53092 29.8722 7.78157 29.5786 7.91406C29.2886 8.04297 28.9251 8.10742 28.4883 8.10742C27.9046 8.10742 27.4463 7.95703 27.1133 7.65625C26.7839 7.35547 26.6191 6.92757 26.6191 6.37256C26.6191 5.18376 27.5698 4.56071 29.4712 4.50342L30.4702 4.47119V4.10596C30.4702 3.64404 30.37 3.30387 30.1694 3.08545C29.9725 2.86344 29.6556 2.75244 29.2187 2.75244C28.7282 2.75244 28.1732 2.90283 27.5537 3.20361L27.2798 2.52148C27.5698 2.36393 27.8867 2.2404 28.2305 2.15088C28.5778 2.06136 28.9251 2.0166 29.2725 2.0166C29.9743 2.0166 30.4935 2.17236 30.8301 2.48389C31.1702 2.79541 31.3403 3.29492 31.3403 3.98242V8H30.6797ZM28.6655 7.37158C29.2205 7.37158 29.6556 7.2194 29.9707 6.91504C30.2894 6.61068 30.4487 6.18457 30.4487 5.63672V5.10498L29.5571 5.14258C28.8481 5.16764 28.3361 5.27865 28.021 5.47559C27.7095 5.66894 27.5537 5.97152 27.5537 6.3833C27.5537 6.70557 27.6504 6.95085 27.8437 7.11914C28.0407 7.28743 28.3146 7.37158 28.6655 7.37158Z" fill="white"/>
</svg>
