<svg width="567" height="775" viewBox="0 0 567 775" fill="none" xmlns="http://www.w3.org/2000/svg">
<path d="M421.576 580.09C413.674 561.927 401.763 545.787 386.735 532.879L416.394 493.765C431.505 503.578 448.76 509.608 466.7 511.347C484.64 513.085 502.736 510.48 519.46 503.751C534.836 497.635 548.592 488.049 559.652 475.742C570.712 463.435 578.776 448.741 583.216 432.807L633.259 444.444C633.502 472.633 644.521 499.657 664.058 519.98C683.595 540.302 710.171 552.385 738.342 553.753C766.513 555.12 794.146 545.669 815.581 527.335C837.015 509.001 850.628 483.173 853.631 455.141C856.633 427.11 848.799 398.997 831.731 376.562C814.664 354.127 789.656 339.068 761.831 334.471C734.006 329.873 705.471 336.085 682.07 351.834C658.669 367.582 642.174 391.676 635.966 419.178L587.748 408.319C589.031 392.06 586.607 375.724 580.657 360.541C569.873 334.459 549.647 313.403 524.013 301.571C498.379 289.739 469.22 288.001 442.351 296.703L420.661 242.699C441.616 233.261 459.336 217.877 471.62 198.46C483.904 179.043 490.209 156.448 489.752 133.485C489.295 110.521 482.096 88.2019 469.05 69.3005C456.004 50.3991 437.685 35.7494 416.372 27.1723C395.059 18.5952 371.691 16.4689 349.172 21.0577C326.653 25.6464 305.977 36.748 289.713 52.9824C273.449 69.2168 262.315 89.8681 257.695 112.369C253.075 134.871 255.172 158.23 263.726 179.543C273.898 205.113 292.817 226.243 317.118 239.174C341.418 252.105 369.525 255.998 396.437 250.162L419.172 306.768C397.341 320.602 381.04 341.635 373.096 366.218C365.153 390.801 366.068 417.384 375.684 441.355C380.767 453.744 387.917 465.18 396.83 475.176L365.35 517.288C350.483 510.041 334.269 505.966 317.737 505.321C301.206 504.676 284.72 507.475 269.326 513.541C247.798 522.04 229.267 536.72 216.071 555.729C202.874 574.738 195.604 597.224 195.177 620.352C194.749 643.479 201.184 666.212 213.67 685.682C226.155 705.152 244.132 720.488 265.332 729.755C286.532 739.022 310.006 741.805 332.794 737.752C355.581 733.7 376.66 722.994 393.373 706.985C410.086 690.976 421.683 670.381 426.702 647.798C431.721 625.214 429.937 601.655 421.576 580.09Z" fill="#F8F8F7"/>
</svg>
